<svg width="32" height="32" viewBox="0 0 32 32" fill="none" xmlns="http://www.w3.org/2000/svg">
<rect width="32" height="32" fill="#E62321"/>
<mask id="path-2-outside-1_2_36" maskUnits="userSpaceOnUse" x="0" y="1" width="16" height="21" fill="black">
<rect fill="white" y="1" width="16" height="21"/>
<path d="M4.4988 20.448C4.20946 20.448 3.9528 20.35 3.7288 20.154C3.5048 19.9673 3.31346 19.7293 3.1548 19.44C3.00546 19.1413 2.8748 18.8427 2.7628 18.544C2.66013 18.208 2.5528 17.7553 2.4408 17.186C2.33813 16.6167 2.23546 15.9867 2.1328 15.296C2.03946 14.6053 1.9508 13.9147 1.8668 13.224C1.79213 12.524 1.73146 11.8753 1.6848 11.278C1.64746 10.6713 1.6288 10.1767 1.6288 9.794C1.6288 8.83267 1.71746 7.96933 1.8948 7.204C2.08146 6.42933 2.3428 5.75267 2.6788 5.174C3.0148 4.586 3.41613 4.08667 3.8828 3.676C4.54546 3.116 5.3388 2.724 6.2628 2.5C7.1868 2.26667 8.19013 2.15 9.2728 2.15C9.92613 2.15 10.5841 2.19667 11.2468 2.29C11.9095 2.38333 12.5115 2.52333 13.0528 2.71C13.6035 2.88733 14.0421 3.09733 14.3688 3.34C14.7048 3.58267 14.8728 3.85333 14.8728 4.152C14.8728 4.404 14.8028 4.59533 14.6628 4.726C14.5228 4.85667 14.3268 4.95 14.0748 5.006C13.6921 5.05267 13.1648 5.048 12.4928 4.992C11.8301 4.92667 11.0881 4.894 10.2668 4.894C9.3988 4.894 8.6708 4.992 8.0828 5.188C7.50413 5.37467 7.04213 5.65467 6.6968 6.028C6.4448 6.27067 6.24413 6.56467 6.0948 6.91C5.9548 7.246 5.85213 7.638 5.7868 8.086C5.7308 8.52467 5.7028 9.024 5.7028 9.584C5.7028 9.836 5.7168 10.0647 5.7448 10.27C5.78213 10.466 5.83813 10.634 5.9128 10.774C5.98746 10.914 6.0808 11.0213 6.1928 11.096C6.31413 11.1707 6.46346 11.208 6.6408 11.208C6.9488 11.208 7.32213 11.1987 7.7608 11.18C8.2088 11.152 8.66613 11.124 9.1328 11.096C9.59946 11.0587 10.0381 11.0353 10.4488 11.026C10.8595 11.0167 11.1955 11.0213 11.4568 11.04C11.8301 11.0867 12.1148 11.1707 12.3108 11.292C12.5161 11.404 12.6188 11.5767 12.6188 11.81C12.6188 11.9407 12.5908 12.0713 12.5348 12.202C12.4788 12.3327 12.3948 12.4493 12.2828 12.552C12.1148 12.72 11.7975 12.8413 11.3308 12.916C10.8641 12.9813 10.2201 13.056 9.3988 13.14C8.57746 13.2147 7.54146 13.35 6.2908 13.546C6.0108 13.5833 5.81013 13.6953 5.6888 13.882C5.5768 14.0593 5.5208 14.3067 5.5208 14.624C5.5208 14.7547 5.5348 14.9833 5.5628 15.31C5.5908 15.6273 5.6188 15.9867 5.6468 16.388C5.68413 16.7893 5.7168 17.1953 5.7448 17.606C5.7728 18.0167 5.79146 18.3853 5.8008 18.712C5.81013 19.0387 5.80546 19.286 5.7868 19.454C5.68413 19.8367 5.5208 20.098 5.2968 20.238C5.0728 20.378 4.8068 20.448 4.4988 20.448Z"/>
</mask>
<path d="M4.4988 20.448C4.20946 20.448 3.9528 20.35 3.7288 20.154C3.5048 19.9673 3.31346 19.7293 3.1548 19.44C3.00546 19.1413 2.8748 18.8427 2.7628 18.544C2.66013 18.208 2.5528 17.7553 2.4408 17.186C2.33813 16.6167 2.23546 15.9867 2.1328 15.296C2.03946 14.6053 1.9508 13.9147 1.8668 13.224C1.79213 12.524 1.73146 11.8753 1.6848 11.278C1.64746 10.6713 1.6288 10.1767 1.6288 9.794C1.6288 8.83267 1.71746 7.96933 1.8948 7.204C2.08146 6.42933 2.3428 5.75267 2.6788 5.174C3.0148 4.586 3.41613 4.08667 3.8828 3.676C4.54546 3.116 5.3388 2.724 6.2628 2.5C7.1868 2.26667 8.19013 2.15 9.2728 2.15C9.92613 2.15 10.5841 2.19667 11.2468 2.29C11.9095 2.38333 12.5115 2.52333 13.0528 2.71C13.6035 2.88733 14.0421 3.09733 14.3688 3.34C14.7048 3.58267 14.8728 3.85333 14.8728 4.152C14.8728 4.404 14.8028 4.59533 14.6628 4.726C14.5228 4.85667 14.3268 4.95 14.0748 5.006C13.6921 5.05267 13.1648 5.048 12.4928 4.992C11.8301 4.92667 11.0881 4.894 10.2668 4.894C9.3988 4.894 8.6708 4.992 8.0828 5.188C7.50413 5.37467 7.04213 5.65467 6.6968 6.028C6.4448 6.27067 6.24413 6.56467 6.0948 6.91C5.9548 7.246 5.85213 7.638 5.7868 8.086C5.7308 8.52467 5.7028 9.024 5.7028 9.584C5.7028 9.836 5.7168 10.0647 5.7448 10.27C5.78213 10.466 5.83813 10.634 5.9128 10.774C5.98746 10.914 6.0808 11.0213 6.1928 11.096C6.31413 11.1707 6.46346 11.208 6.6408 11.208C6.9488 11.208 7.32213 11.1987 7.7608 11.18C8.2088 11.152 8.66613 11.124 9.1328 11.096C9.59946 11.0587 10.0381 11.0353 10.4488 11.026C10.8595 11.0167 11.1955 11.0213 11.4568 11.04C11.8301 11.0867 12.1148 11.1707 12.3108 11.292C12.5161 11.404 12.6188 11.5767 12.6188 11.81C12.6188 11.9407 12.5908 12.0713 12.5348 12.202C12.4788 12.3327 12.3948 12.4493 12.2828 12.552C12.1148 12.72 11.7975 12.8413 11.3308 12.916C10.8641 12.9813 10.2201 13.056 9.3988 13.14C8.57746 13.2147 7.54146 13.35 6.2908 13.546C6.0108 13.5833 5.81013 13.6953 5.6888 13.882C5.5768 14.0593 5.5208 14.3067 5.5208 14.624C5.5208 14.7547 5.5348 14.9833 5.5628 15.31C5.5908 15.6273 5.6188 15.9867 5.6468 16.388C5.68413 16.7893 5.7168 17.1953 5.7448 17.606C5.7728 18.0167 5.79146 18.3853 5.8008 18.712C5.81013 19.0387 5.80546 19.286 5.7868 19.454C5.68413 19.8367 5.5208 20.098 5.2968 20.238C5.0728 20.378 4.8068 20.448 4.4988 20.448Z" fill="white"/>
<path d="M3.7288 20.154L4.3873 19.4014L4.37824 19.3935L4.36898 19.3858L3.7288 20.154ZM3.1548 19.44L2.26037 19.8872L2.26886 19.9042L2.27798 19.9208L3.1548 19.44ZM2.7628 18.544L1.80645 18.8362L1.81554 18.866L1.82647 18.8951L2.7628 18.544ZM2.4408 17.186L1.45667 17.3635L1.45807 17.3713L1.4596 17.379L2.4408 17.186ZM2.1328 15.296L1.14172 15.4299L1.14367 15.443L2.1328 15.296ZM1.8668 13.224L0.872438 13.3301L0.873221 13.3374L0.874112 13.3447L1.8668 13.224ZM1.6848 11.278L0.686685 11.3394L0.687192 11.3477L0.687835 11.3559L1.6848 11.278ZM1.8948 7.204L0.922585 6.96973L0.920606 6.97827L1.8948 7.204ZM2.6788 5.174L3.54361 5.67615L3.54704 5.67014L2.6788 5.174ZM3.8828 3.676L3.23734 2.91221L3.22969 2.91867L3.22217 2.92529L3.8828 3.676ZM6.2628 2.5L6.49841 3.47189L6.50764 3.46956L6.2628 2.5ZM13.0528 2.71L12.7268 3.65537L12.7365 3.65872L12.7463 3.66186L13.0528 2.71ZM14.3688 3.34L13.7724 4.14281L13.7833 4.15068L14.3688 3.34ZM14.6628 4.726L13.9805 3.99494L13.9805 3.99495L14.6628 4.726ZM14.0748 5.006L14.1959 5.99864L14.2442 5.99275L14.2917 5.98219L14.0748 5.006ZM12.4928 4.992L12.3947 5.98717L12.4022 5.98792L12.4098 5.98855L12.4928 4.992ZM8.0828 5.188L8.38981 6.13975L8.39902 6.13668L8.0828 5.188ZM6.6968 6.028L7.39044 6.74832L7.41126 6.72827L7.4309 6.70704L6.6968 6.028ZM6.0948 6.91L5.17686 6.51305L5.17172 6.52538L6.0948 6.91ZM5.7868 8.086L4.79726 7.94169L4.79598 7.95052L4.79485 7.95937L5.7868 8.086ZM5.7448 10.27L4.75397 10.4051L4.75753 10.4312L4.76246 10.4571L5.7448 10.27ZM5.9128 10.774L6.79515 10.3034L6.79515 10.3034L5.9128 10.774ZM6.1928 11.096L5.6381 11.928L5.65322 11.9381L5.6687 11.9477L6.1928 11.096ZM7.7608 11.18L7.80331 12.1791L7.81325 12.1787L7.82317 12.1781L7.7608 11.18ZM9.1328 11.096L9.19269 12.0942L9.20262 12.0936L9.21254 12.0928L9.1328 11.096ZM10.4488 11.026L10.4715 12.0257L10.4715 12.0257L10.4488 11.026ZM11.4568 11.04L11.5808 10.0477L11.5545 10.0444L11.528 10.0425L11.4568 11.04ZM12.3108 11.292L11.7844 12.1423L11.8078 12.1567L11.8319 12.1699L12.3108 11.292ZM12.2828 12.552L11.6071 11.8148L11.5911 11.8295L11.5757 11.8449L12.2828 12.552ZM11.3308 12.916L11.4694 13.9063L11.4791 13.905L11.4888 13.9034L11.3308 12.916ZM9.3988 13.14L9.48934 14.136L9.50054 14.1348L9.3988 13.14ZM6.2908 13.546L6.42296 14.5372L6.43431 14.5357L6.44562 14.5339L6.2908 13.546ZM5.6888 13.882L4.85028 13.337L4.84331 13.348L5.6888 13.882ZM5.5628 15.31L4.56645 15.3954L4.56667 15.3979L5.5628 15.31ZM5.6468 16.388L4.64922 16.4576L4.65003 16.4691L4.6511 16.4806L5.6468 16.388ZM5.7448 17.606L4.74711 17.674L4.74711 17.674L5.7448 17.606ZM5.8008 18.712L4.8012 18.7406L4.8012 18.7406L5.8008 18.712ZM5.7868 19.454L6.75264 19.7131L6.7723 19.6398L6.78068 19.5644L5.7868 19.454ZM5.2968 20.238L5.8268 21.086L5.8268 21.086L5.2968 20.238ZM4.4988 19.448C4.45921 19.448 4.43475 19.4429 4.3873 19.4014L3.07029 20.9066C3.47084 21.2571 3.95972 21.448 4.4988 21.448V19.448ZM4.36898 19.3858C4.25297 19.2891 4.13796 19.1531 4.03161 18.9592L2.27798 19.9208C2.48897 20.3056 2.75662 20.6456 3.08861 20.9222L4.36898 19.3858ZM4.04922 18.9928C3.9148 18.7239 3.79829 18.4573 3.69913 18.1929L1.82647 18.8951C1.9513 19.228 2.09612 19.5587 2.26037 19.8872L4.04922 18.9928ZM3.71915 18.2518C3.63075 17.9625 3.53105 17.5473 3.42199 16.993L1.4596 17.379C1.57455 17.9633 1.68951 18.4535 1.80645 18.8362L3.71915 18.2518ZM3.42492 17.0085C3.32441 16.4511 3.22338 15.8315 3.12193 15.149L1.14367 15.443C1.24755 16.1419 1.35185 16.7822 1.45667 17.3635L3.42492 17.0085ZM3.12379 15.1621C3.03105 14.4758 2.94295 13.7895 2.85948 13.1033L0.874112 13.3447C0.958648 14.0398 1.04788 14.7349 1.1418 15.4299L3.12379 15.1621ZM2.86116 13.1179C2.78732 12.4257 2.72758 11.7866 2.68176 11.2001L0.687835 11.3559C0.73535 11.9641 0.796938 12.6223 0.872438 13.3301L2.86116 13.1179ZM2.68291 11.2166C2.6462 10.62 2.6288 10.1479 2.6288 9.794H0.628797C0.628797 10.2054 0.648731 10.7227 0.686685 11.3394L2.68291 11.2166ZM2.6288 9.794C2.6288 8.89243 2.71211 8.10676 2.86899 7.42973L0.920606 6.97827C0.722814 7.8319 0.628797 8.7729 0.628797 9.794H2.6288ZM2.86697 7.43826C3.03517 6.74024 3.26436 6.15702 3.54359 5.67614L1.81401 4.67186C1.42123 5.34832 1.12776 6.11842 0.922623 6.96974L2.86697 7.43826ZM3.54704 5.67014C3.83322 5.16932 4.1666 4.75832 4.54342 4.42671L3.22217 2.92529C2.66566 3.41501 2.19637 4.00268 1.81055 4.67786L3.54704 5.67014ZM4.52826 4.43979C5.06127 3.98936 5.71061 3.66283 6.4984 3.47185L6.0272 1.52815C4.96698 1.78517 4.02966 2.24264 3.23734 2.91221L4.52826 4.43979ZM6.50764 3.46956C7.34161 3.25896 8.26171 3.15 9.2728 3.15V1.15C8.11855 1.15 7.03199 1.27437 6.01796 1.53044L6.50764 3.46956ZM9.2728 3.15C9.87835 3.15 10.4897 3.19324 11.1073 3.28023L11.3863 1.29977C10.6785 1.20009 9.97391 1.15 9.2728 1.15V3.15ZM11.1073 3.28023C11.7169 3.36607 12.2552 3.49274 12.7268 3.65537L13.3788 1.76463C12.7677 1.55392 12.1021 1.40059 11.3863 1.29977L11.1073 3.28023ZM12.7463 3.66186C13.233 3.81861 13.5621 3.98644 13.7725 4.14274L14.9651 2.53726C14.5222 2.20822 13.9739 1.95605 13.3593 1.75814L12.7463 3.66186ZM13.7833 4.15068C13.8759 4.21758 13.8992 4.25564 13.8972 4.25236C13.8953 4.24941 13.8883 4.23714 13.8822 4.21627C13.8759 4.19496 13.8728 4.17253 13.8728 4.152H15.8728C15.8728 3.41836 15.442 2.88156 14.9543 2.52932L13.7833 4.15068ZM13.8728 4.152C13.8728 4.18754 13.8676 4.17792 13.8812 4.14092C13.8966 4.09872 13.9283 4.04361 13.9805 3.99494L15.3451 5.45706C15.7464 5.08257 15.8728 4.5893 15.8728 4.152H13.8728ZM13.9805 3.99495C14.0087 3.96859 13.9941 3.99953 13.8579 4.02981L14.2917 5.98219C14.6595 5.90047 15.0369 5.74474 15.3451 5.45705L13.9805 3.99495ZM13.9537 4.01335C13.6709 4.04784 13.2223 4.04932 12.5758 3.99545L12.4098 5.98855C13.1073 6.04668 13.7133 6.05749 14.1959 5.99864L13.9537 4.01335ZM12.5909 3.99682C11.8892 3.92764 11.1137 3.894 10.2668 3.894V5.894C11.0626 5.894 11.7711 5.92569 12.3947 5.98717L12.5909 3.99682ZM10.2668 3.894C9.33092 3.894 8.48832 3.99873 7.76657 4.23932L8.39902 6.13668C8.85327 5.98527 9.46668 5.894 10.2668 5.894V3.894ZM7.77579 4.23629C7.06567 4.46536 6.44548 4.82703 5.9627 5.34896L7.4309 6.70704C7.63878 6.48231 7.94259 6.28397 8.3898 6.13971L7.77579 4.23629ZM6.00316 5.30768C5.64872 5.64899 5.37484 6.05544 5.17694 6.51309L7.01265 7.30691C7.11342 7.0739 7.24088 6.89234 7.39044 6.74832L6.00316 5.30768ZM5.17172 6.52538C4.99296 6.95441 4.87185 7.43027 4.79726 7.94169L6.77633 8.23031C6.83241 7.84573 6.91664 7.53759 7.01787 7.29461L5.17172 6.52538ZM4.79485 7.95937C4.7323 8.44935 4.7028 8.99223 4.7028 9.584H6.7028C6.7028 9.05577 6.7293 8.59998 6.77875 8.21263L4.79485 7.95937ZM4.7028 9.584C4.7028 9.87192 4.71872 10.1467 4.75397 10.4051L6.73563 10.1349C6.71487 9.98267 6.7028 9.80008 6.7028 9.584H4.7028ZM4.76246 10.4571C4.81402 10.7278 4.89798 10.9962 5.03044 11.2446L6.79515 10.3034C6.77828 10.2718 6.75024 10.2042 6.72714 10.0829L4.76246 10.4571ZM5.03044 11.2446C5.16892 11.5042 5.36608 11.7467 5.6381 11.928L6.7475 10.2639C6.76976 10.2788 6.78489 10.2935 6.7934 10.3033C6.80148 10.3126 6.80104 10.3145 6.79515 10.3034L5.03044 11.2446ZM5.6687 11.9477C5.98206 12.1405 6.32347 12.208 6.6408 12.208V10.208C6.6218 10.208 6.62274 10.206 6.63833 10.2099C6.65506 10.214 6.6836 10.2238 6.71689 10.2443L5.6687 11.9477ZM6.6408 12.208C6.96751 12.208 7.35589 12.1981 7.80331 12.1791L7.71828 10.1809C7.28837 10.1992 6.93008 10.208 6.6408 10.208V12.208ZM7.82317 12.1781C8.27031 12.1501 8.72682 12.1222 9.19269 12.0942L9.0729 10.0978C8.60544 10.1258 8.14728 10.1539 7.69842 10.1819L7.82317 12.1781ZM9.21254 12.0928C9.66279 12.0568 10.0823 12.0346 10.4715 12.0257L10.4261 10.0263C9.99397 10.0361 9.53613 10.0605 9.05305 10.0992L9.21254 12.0928ZM10.4715 12.0257C10.8663 12.0168 11.1678 12.0219 11.3856 12.0375L11.528 10.0425C11.2231 10.0208 10.8527 10.0166 10.4261 10.0263L10.4715 12.0257ZM11.3328 12.0323C11.6428 12.071 11.7642 12.1298 11.7844 12.1423L12.8372 10.4417C12.4653 10.2116 12.0175 10.1023 11.5808 10.0477L11.3328 12.0323ZM11.8319 12.1699C11.8033 12.1543 11.7368 12.1082 11.6823 12.0166C11.6277 11.9248 11.6188 11.8438 11.6188 11.81H13.6188C13.6188 11.5429 13.5586 11.2589 13.4013 10.9944C13.2442 10.7301 13.0236 10.5417 12.7896 10.4141L11.8319 12.1699ZM11.6188 11.81C11.6188 11.8033 11.6196 11.7984 11.62 11.7965C11.6204 11.7947 11.6198 11.7984 11.6157 11.8081L13.4539 12.5959C13.5586 12.3518 13.6188 12.0876 13.6188 11.81H11.6188ZM11.6157 11.8081C11.6161 11.807 11.6167 11.8058 11.6173 11.8048C11.6179 11.8037 11.6183 11.8032 11.6183 11.8032C11.6182 11.8032 11.6175 11.8042 11.6159 11.806C11.6142 11.8079 11.6114 11.8109 11.6071 11.8148L12.9585 13.2892C13.1678 13.0973 13.3383 12.8658 13.4539 12.5959L11.6157 11.8081ZM11.5757 11.8449C11.6242 11.7964 11.6413 11.8045 11.5617 11.8349C11.4868 11.8636 11.3624 11.8982 11.1728 11.9286L11.4888 13.9034C11.9915 13.823 12.5847 13.6643 12.9899 13.2591L11.5757 11.8449ZM11.1921 11.9257C10.7435 11.9885 10.1137 12.0617 9.29705 12.1452L9.50054 14.1348C10.3265 14.0503 10.9847 13.9742 11.4694 13.9063L11.1921 11.9257ZM9.30826 12.1441C8.45729 12.2215 7.39801 12.3603 6.13597 12.5581L6.44562 14.5339C7.68492 14.3397 8.69764 14.2079 9.48933 14.1359L9.30826 12.1441ZM6.15863 12.5548C5.67317 12.6195 5.17165 12.8427 4.85035 13.337L6.52724 14.427C6.51335 14.4484 6.49565 14.4698 6.47472 14.4892C6.45389 14.5085 6.43384 14.5222 6.41766 14.5312C6.38606 14.5488 6.38003 14.543 6.42296 14.5372L6.15863 12.5548ZM4.84331 13.348C4.59112 13.7473 4.5208 14.2078 4.5208 14.624H6.5208C6.5208 14.522 6.53001 14.4571 6.53811 14.4213C6.54607 14.3862 6.55027 14.3907 6.53429 14.416L4.84331 13.348ZM4.5208 14.624C4.5208 14.8024 4.53856 15.07 4.56645 15.3954L6.55914 15.2246C6.53103 14.8966 6.5208 14.7069 6.5208 14.624H4.5208ZM4.56667 15.3979C4.59401 15.7078 4.62154 16.0609 4.64922 16.4576L6.64437 16.3184C6.61605 15.9125 6.58758 15.5469 6.55893 15.2221L4.56667 15.3979ZM4.6511 16.4806C4.68765 16.8736 4.71966 17.2714 4.74711 17.674L6.74248 17.538C6.71393 17.1193 6.68061 16.7051 6.6425 16.2954L4.6511 16.4806ZM4.74711 17.674C4.77444 18.0747 4.79233 18.4299 4.8012 18.7406L6.80039 18.6834C6.7906 18.3408 6.77116 17.9586 6.74248 17.538L4.74711 17.674ZM4.8012 18.7406C4.81019 19.0552 4.8037 19.2465 4.79291 19.3436L6.78068 19.5644C6.80723 19.3255 6.81007 19.0222 6.80039 18.6834L4.8012 18.7406ZM4.82095 19.1949C4.78835 19.3164 4.75599 19.3803 4.7393 19.407C4.72475 19.4303 4.73023 19.4129 4.7668 19.39L5.8268 21.086C6.35118 20.7583 6.61646 20.2207 6.75264 19.7131L4.82095 19.1949ZM4.7668 19.39C4.72659 19.4151 4.65103 19.448 4.4988 19.448V21.448C4.96257 21.448 5.41901 21.3409 5.8268 21.086L4.7668 19.39Z" fill="black" mask="url(#path-2-outside-1_2_36)"/>
<mask id="path-4-outside-2_2_36" maskUnits="userSpaceOnUse" x="12" y="13" width="20" height="18" fill="black">
<rect fill="white" x="12" y="13" width="20" height="18"/>
<path d="M15.0007 29.6C14.5257 29.6 14.1882 29.4542 13.9882 29.1625C13.7882 28.8792 13.6215 28.4667 13.4882 27.925C13.4215 27.5833 13.3632 27.2083 13.3132 26.8C13.2632 26.3917 13.2257 25.9667 13.2007 25.525C13.1757 25.075 13.1549 24.6167 13.1382 24.15C13.1299 23.675 13.1257 23.2 13.1257 22.725C13.1424 22.125 13.1674 21.525 13.2007 20.925C13.234 20.325 13.2799 19.75 13.3382 19.2C13.3965 18.6417 13.4632 18.1458 13.5382 17.7125C13.6215 17.2708 13.709 16.9208 13.8007 16.6625C14.0174 16.0458 14.3049 15.5542 14.6632 15.1875C15.0215 14.8208 15.434 14.5583 15.9007 14.4C16.3674 14.2333 16.8549 14.15 17.3632 14.15C17.9465 14.15 18.4507 14.2792 18.8757 14.5375C19.309 14.7958 19.6424 15.1708 19.8757 15.6625C20.009 15.9375 20.1424 16.2792 20.2757 16.6875C20.409 17.0958 20.534 17.5292 20.6507 17.9875C20.7757 18.4458 20.8882 18.9042 20.9882 19.3625C21.0965 19.8125 21.1882 20.2292 21.2632 20.6125C21.3549 21.0875 21.459 21.5083 21.5757 21.875C21.7007 22.2333 21.884 22.4125 22.1257 22.4125C22.3674 22.4125 22.5465 22.2625 22.6632 21.9625C22.7882 21.6625 22.884 21.3292 22.9507 20.9625C23.0174 20.5375 23.0924 20.0833 23.1757 19.6C23.259 19.1167 23.3507 18.6375 23.4507 18.1625C23.559 17.6792 23.6715 17.2208 23.7882 16.7875C23.9132 16.3542 24.0382 15.9708 24.1632 15.6375C24.3882 15.1625 24.7049 14.7958 25.1132 14.5375C25.5299 14.2792 26.0632 14.15 26.7132 14.15C27.1965 14.15 27.6382 14.2375 28.0382 14.4125C28.4382 14.5792 28.7965 14.825 29.1132 15.15C29.4299 15.475 29.6965 15.875 29.9132 16.35C30.1049 16.7417 30.2674 17.2625 30.4007 17.9125C30.5424 18.5542 30.6507 19.2833 30.7257 20.1C30.8007 20.9083 30.8465 21.7542 30.8632 22.6375C30.8632 23.0792 30.8632 23.5208 30.8632 23.9625C30.8632 24.4042 30.8549 24.8458 30.8382 25.2875C30.8215 25.7208 30.7965 26.15 30.7632 26.575C30.7382 26.9917 30.6965 27.4 30.6382 27.8C30.5215 28.2833 30.334 28.6375 30.0757 28.8625C29.8257 29.0792 29.4632 29.1875 28.9882 29.1875C28.6965 29.1875 28.4632 29.1125 28.2882 28.9625C28.1215 28.8125 28.0132 28.6 27.9632 28.325C27.9465 28.0417 27.9299 27.7458 27.9132 27.4375C27.8965 27.1208 27.8757 26.7958 27.8507 26.4625C27.834 26.1208 27.8174 25.7792 27.8007 25.4375C27.784 25.0958 27.7674 24.7583 27.7507 24.425C27.7257 23.7667 27.6924 23.1333 27.6507 22.525C27.609 21.9083 27.559 21.3583 27.5007 20.875C27.4507 20.3833 27.3882 20.0125 27.3132 19.7625C27.1715 19.2958 27.009 18.9417 26.8257 18.7C26.6507 18.4583 26.3882 18.3375 26.0382 18.3375C25.7465 18.3375 25.4882 18.4583 25.2632 18.7C25.0465 18.9333 24.884 19.2833 24.7757 19.75C24.734 19.95 24.684 20.2042 24.6257 20.5125C24.5674 20.8125 24.5049 21.1458 24.4382 21.5125C24.3799 21.8708 24.3174 22.2458 24.2507 22.6375C24.1924 23.0208 24.134 23.4 24.0757 23.775C24.0174 24.1417 23.9632 24.4833 23.9132 24.8C23.7882 25.45 23.5799 25.9417 23.2882 26.275C23.0049 26.6 22.6049 26.7625 22.0882 26.7625C21.4715 26.7625 21.0299 26.5458 20.7632 26.1125C20.4965 25.6792 20.2549 25.0958 20.0382 24.3625C19.9882 24.1208 19.9257 23.825 19.8507 23.475C19.7757 23.125 19.6965 22.7542 19.6132 22.3625C19.5299 21.9625 19.4465 21.5667 19.3632 21.175C19.2799 20.7833 19.2007 20.4292 19.1257 20.1125C19.059 19.7875 18.9965 19.525 18.9382 19.325C18.8299 18.8917 18.6799 18.575 18.4882 18.375C18.3049 18.175 18.084 18.075 17.8257 18.075C17.459 18.075 17.1924 18.2125 17.0257 18.4875C16.8674 18.7625 16.7382 19.2 16.6382 19.8C16.6049 20 16.5757 20.2583 16.5507 20.575C16.5257 20.8917 16.5049 21.25 16.4882 21.65C16.4715 22.0417 16.4549 22.4625 16.4382 22.9125C16.4299 23.3625 16.4257 23.8208 16.4257 24.2875C16.4257 24.7708 16.4215 25.2292 16.4132 25.6625C16.4132 26.0958 16.4049 26.5 16.3882 26.875C16.3715 27.25 16.3507 27.5833 16.3257 27.875C16.309 28.1583 16.284 28.3917 16.2507 28.575C16.159 28.8833 16.0132 29.1292 15.8132 29.3125C15.6215 29.5042 15.3507 29.6 15.0007 29.6Z"/>
</mask>
<path d="M15.0007 29.6C14.5257 29.6 14.1882 29.4542 13.9882 29.1625C13.7882 28.8792 13.6215 28.4667 13.4882 27.925C13.4215 27.5833 13.3632 27.2083 13.3132 26.8C13.2632 26.3917 13.2257 25.9667 13.2007 25.525C13.1757 25.075 13.1549 24.6167 13.1382 24.15C13.1299 23.675 13.1257 23.2 13.1257 22.725C13.1424 22.125 13.1674 21.525 13.2007 20.925C13.234 20.325 13.2799 19.75 13.3382 19.2C13.3965 18.6417 13.4632 18.1458 13.5382 17.7125C13.6215 17.2708 13.709 16.9208 13.8007 16.6625C14.0174 16.0458 14.3049 15.5542 14.6632 15.1875C15.0215 14.8208 15.434 14.5583 15.9007 14.4C16.3674 14.2333 16.8549 14.15 17.3632 14.15C17.9465 14.15 18.4507 14.2792 18.8757 14.5375C19.309 14.7958 19.6424 15.1708 19.8757 15.6625C20.009 15.9375 20.1424 16.2792 20.2757 16.6875C20.409 17.0958 20.534 17.5292 20.6507 17.9875C20.7757 18.4458 20.8882 18.9042 20.9882 19.3625C21.0965 19.8125 21.1882 20.2292 21.2632 20.6125C21.3549 21.0875 21.459 21.5083 21.5757 21.875C21.7007 22.2333 21.884 22.4125 22.1257 22.4125C22.3674 22.4125 22.5465 22.2625 22.6632 21.9625C22.7882 21.6625 22.884 21.3292 22.9507 20.9625C23.0174 20.5375 23.0924 20.0833 23.1757 19.6C23.259 19.1167 23.3507 18.6375 23.4507 18.1625C23.559 17.6792 23.6715 17.2208 23.7882 16.7875C23.9132 16.3542 24.0382 15.9708 24.1632 15.6375C24.3882 15.1625 24.7049 14.7958 25.1132 14.5375C25.5299 14.2792 26.0632 14.15 26.7132 14.15C27.1965 14.15 27.6382 14.2375 28.0382 14.4125C28.4382 14.5792 28.7965 14.825 29.1132 15.15C29.4299 15.475 29.6965 15.875 29.9132 16.35C30.1049 16.7417 30.2674 17.2625 30.4007 17.9125C30.5424 18.5542 30.6507 19.2833 30.7257 20.1C30.8007 20.9083 30.8465 21.7542 30.8632 22.6375C30.8632 23.0792 30.8632 23.5208 30.8632 23.9625C30.8632 24.4042 30.8549 24.8458 30.8382 25.2875C30.8215 25.7208 30.7965 26.15 30.7632 26.575C30.7382 26.9917 30.6965 27.4 30.6382 27.8C30.5215 28.2833 30.334 28.6375 30.0757 28.8625C29.8257 29.0792 29.4632 29.1875 28.9882 29.1875C28.6965 29.1875 28.4632 29.1125 28.2882 28.9625C28.1215 28.8125 28.0132 28.6 27.9632 28.325C27.9465 28.0417 27.9299 27.7458 27.9132 27.4375C27.8965 27.1208 27.8757 26.7958 27.8507 26.4625C27.834 26.1208 27.8174 25.7792 27.8007 25.4375C27.784 25.0958 27.7674 24.7583 27.7507 24.425C27.7257 23.7667 27.6924 23.1333 27.6507 22.525C27.609 21.9083 27.559 21.3583 27.5007 20.875C27.4507 20.3833 27.3882 20.0125 27.3132 19.7625C27.1715 19.2958 27.009 18.9417 26.8257 18.7C26.6507 18.4583 26.3882 18.3375 26.0382 18.3375C25.7465 18.3375 25.4882 18.4583 25.2632 18.7C25.0465 18.9333 24.884 19.2833 24.7757 19.75C24.734 19.95 24.684 20.2042 24.6257 20.5125C24.5674 20.8125 24.5049 21.1458 24.4382 21.5125C24.3799 21.8708 24.3174 22.2458 24.2507 22.6375C24.1924 23.0208 24.134 23.4 24.0757 23.775C24.0174 24.1417 23.9632 24.4833 23.9132 24.8C23.7882 25.45 23.5799 25.9417 23.2882 26.275C23.0049 26.6 22.6049 26.7625 22.0882 26.7625C21.4715 26.7625 21.0299 26.5458 20.7632 26.1125C20.4965 25.6792 20.2549 25.0958 20.0382 24.3625C19.9882 24.1208 19.9257 23.825 19.8507 23.475C19.7757 23.125 19.6965 22.7542 19.6132 22.3625C19.5299 21.9625 19.4465 21.5667 19.3632 21.175C19.2799 20.7833 19.2007 20.4292 19.1257 20.1125C19.059 19.7875 18.9965 19.525 18.9382 19.325C18.8299 18.8917 18.6799 18.575 18.4882 18.375C18.3049 18.175 18.084 18.075 17.8257 18.075C17.459 18.075 17.1924 18.2125 17.0257 18.4875C16.8674 18.7625 16.7382 19.2 16.6382 19.8C16.6049 20 16.5757 20.2583 16.5507 20.575C16.5257 20.8917 16.5049 21.25 16.4882 21.65C16.4715 22.0417 16.4549 22.4625 16.4382 22.9125C16.4299 23.3625 16.4257 23.8208 16.4257 24.2875C16.4257 24.7708 16.4215 25.2292 16.4132 25.6625C16.4132 26.0958 16.4049 26.5 16.3882 26.875C16.3715 27.25 16.3507 27.5833 16.3257 27.875C16.309 28.1583 16.284 28.3917 16.2507 28.575C16.159 28.8833 16.0132 29.1292 15.8132 29.3125C15.6215 29.5042 15.3507 29.6 15.0007 29.6Z" fill="white"/>
<path d="M13.9882 29.1625L14.813 28.5969L14.8052 28.5858L13.9882 29.1625ZM13.4882 27.925L12.5067 28.1165L12.5114 28.1404L12.5172 28.164L13.4882 27.925ZM13.3132 26.8L14.3058 26.6785L14.3058 26.6785L13.3132 26.8ZM13.2007 25.525L12.2022 25.5805L12.2023 25.5815L13.2007 25.525ZM13.1382 24.15L12.1383 24.1675L12.1385 24.1766L12.1388 24.1857L13.1382 24.15ZM13.1257 22.725L12.1261 22.6972L12.1257 22.7111V22.725H13.1257ZM13.3382 19.2L14.3326 19.3055L14.3328 19.3039L13.3382 19.2ZM13.5382 17.7125L12.5555 17.5271L12.5541 17.5345L12.5528 17.542L13.5382 17.7125ZM13.8007 16.6625L14.7431 16.9969L14.7441 16.994L13.8007 16.6625ZM14.6632 15.1875L15.3784 15.8864L15.3784 15.8864L14.6632 15.1875ZM15.9007 14.4L16.222 15.347L16.2295 15.3444L16.237 15.3417L15.9007 14.4ZM18.8757 14.5375L18.3562 15.3921L18.3636 15.3964L18.8757 14.5375ZM19.8757 15.6625L18.9722 16.0913L18.9759 16.0988L19.8757 15.6625ZM20.2757 16.6875L19.3251 16.9979L19.3251 16.9979L20.2757 16.6875ZM20.6507 17.9875L19.6816 18.2342L19.6837 18.2424L19.6859 18.2506L20.6507 17.9875ZM20.9882 19.3625L20.0112 19.5757L20.0135 19.5861L20.016 19.5966L20.9882 19.3625ZM21.2632 20.6125L22.2451 20.423L22.2446 20.4205L21.2632 20.6125ZM21.5757 21.875L20.6228 22.1782L20.6269 22.1913L20.6315 22.2044L21.5757 21.875ZM22.6632 21.9625L21.7401 21.5779L21.7355 21.5889L21.7312 21.6001L22.6632 21.9625ZM22.9507 20.9625L23.9346 21.1414L23.9367 21.1295L23.9386 21.1175L22.9507 20.9625ZM23.1757 19.6L24.1611 19.7699L24.1611 19.7699L23.1757 19.6ZM23.4507 18.1625L22.4748 17.9438L22.4721 17.9565L23.4507 18.1625ZM23.7882 16.7875L22.8274 16.5103L22.8249 16.5189L22.8226 16.5275L23.7882 16.7875ZM24.1632 15.6375L23.2594 15.2094L23.2415 15.2472L23.2269 15.2864L24.1632 15.6375ZM25.1132 14.5375L24.5862 13.6876L24.5785 13.6924L25.1132 14.5375ZM28.0382 14.4125L27.6374 15.3287L27.6454 15.3322L27.6536 15.3356L28.0382 14.4125ZM29.9132 16.35L29.0034 16.765L29.009 16.7774L29.015 16.7896L29.9132 16.35ZM30.4007 17.9125L29.4211 18.1134L29.4226 18.1208L29.4242 18.1281L30.4007 17.9125ZM30.7257 20.1L29.7299 20.1915L29.73 20.1924L30.7257 20.1ZM30.8632 22.6375H31.8632V22.6281L31.863 22.6186L30.8632 22.6375ZM30.8382 25.2875L31.8374 25.3259L31.8375 25.3252L30.8382 25.2875ZM30.7632 26.575L29.7662 26.4968L29.7655 26.506L29.765 26.5151L30.7632 26.575ZM30.6382 27.8L31.6103 28.0346L31.6211 27.9899L31.6277 27.9443L30.6382 27.8ZM30.0757 28.8625L30.7306 29.6182L30.7325 29.6166L30.0757 28.8625ZM28.2882 28.9625L27.6192 29.7058L27.6282 29.7139L27.6374 29.7218L28.2882 28.9625ZM27.9632 28.325L26.9649 28.3837L26.9685 28.4442L26.9793 28.5039L27.9632 28.325ZM27.9132 27.4375L26.9146 27.4901L26.9146 27.4915L27.9132 27.4375ZM27.8507 26.4625L26.8519 26.5112L26.8525 26.5243L26.8535 26.5373L27.8507 26.4625ZM27.8007 25.4375L26.8019 25.4862L26.8019 25.4862L27.8007 25.4375ZM27.7507 24.425L26.7513 24.463L26.7519 24.4749L27.7507 24.425ZM27.6507 22.525L26.653 22.5924L26.653 22.5933L27.6507 22.525ZM27.5007 20.875L26.5058 20.9762L26.5068 20.9855L26.5079 20.9948L27.5007 20.875ZM27.3132 19.7625L28.271 19.4752L28.2701 19.472L27.3132 19.7625ZM26.8257 18.7L26.0157 19.2865L26.0223 19.2955L26.029 19.3044L26.8257 18.7ZM25.2632 18.7L24.5313 18.0186L24.5304 18.0195L25.2632 18.7ZM24.7757 19.75L23.8016 19.5239L23.799 19.5349L23.7967 19.546L24.7757 19.75ZM24.6257 20.5125L25.6073 20.7034L25.6083 20.6984L24.6257 20.5125ZM24.4382 21.5125L23.4543 21.3336L23.4527 21.3427L23.4512 21.3518L24.4382 21.5125ZM24.2507 22.6375L23.2649 22.4697L23.2634 22.4784L23.2621 22.4871L24.2507 22.6375ZM24.0757 23.775L25.0633 23.9321L25.0638 23.9287L24.0757 23.775ZM23.9132 24.8L24.8952 24.9888L24.8983 24.9725L24.9009 24.956L23.9132 24.8ZM23.2882 26.275L22.5356 25.6165L22.5344 25.6179L23.2882 26.275ZM20.7632 26.1125L19.9115 26.6366L19.9115 26.6366L20.7632 26.1125ZM20.0382 24.3625L19.0589 24.5651L19.0674 24.6059L19.0792 24.6458L20.0382 24.3625ZM19.8507 23.475L20.8285 23.2655L20.8285 23.2655L19.8507 23.475ZM19.6132 22.3625L18.6342 22.5665L18.6351 22.5706L19.6132 22.3625ZM19.3632 21.175L18.3851 21.3831L18.3851 21.3831L19.3632 21.175ZM19.1257 20.1125L18.1461 20.3134L18.1491 20.3283L18.1526 20.343L19.1257 20.1125ZM18.9382 19.325L17.968 19.5675L17.9727 19.5864L17.9782 19.605L18.9382 19.325ZM18.4882 18.375L17.751 19.0507L17.7585 19.0589L17.7662 19.0669L18.4882 18.375ZM17.0257 18.4875L16.1705 17.9692L16.1647 17.9788L16.1591 17.9885L17.0257 18.4875ZM16.6382 19.8L15.6518 19.6356L15.6518 19.6356L16.6382 19.8ZM16.5507 20.575L15.5538 20.4963L15.5538 20.4963L16.5507 20.575ZM16.4882 21.65L17.4873 21.6925L17.4873 21.6916L16.4882 21.65ZM16.4382 22.9125L15.4389 22.8755L15.4385 22.8847L15.4384 22.894L16.4382 22.9125ZM16.4132 25.6625L15.4134 25.6433L15.4132 25.6529V25.6625H16.4132ZM16.3882 26.875L17.3872 26.9194L17.3872 26.9194L16.3882 26.875ZM16.3257 27.875L15.3293 27.7896L15.3282 27.8029L15.3274 27.8163L16.3257 27.875ZM16.2507 28.575L17.2092 28.86L17.2248 28.8076L17.2346 28.7539L16.2507 28.575ZM15.8132 29.3125L15.1375 28.5753L15.1214 28.59L15.1061 28.6054L15.8132 29.3125ZM15.0007 28.6C14.8615 28.6 14.8007 28.5781 14.788 28.5727C14.7828 28.5704 14.7869 28.5716 14.7952 28.5783C14.8038 28.5853 14.8099 28.5926 14.8129 28.597L13.1635 29.728C13.6107 30.3802 14.3203 30.6 15.0007 30.6V28.6ZM14.8052 28.5858C14.7075 28.4475 14.5786 28.1712 14.4592 27.686L12.5172 28.164C12.6644 28.7621 12.8688 29.3108 13.1712 29.7392L14.8052 28.5858ZM14.4697 27.7335C14.4083 27.4187 14.3534 27.0674 14.3058 26.6785L12.3206 26.9215C12.373 27.3492 12.4348 27.748 12.5067 28.1165L14.4697 27.7335ZM14.3058 26.6785C14.2586 26.2933 14.2229 25.89 14.1991 25.4685L12.2023 25.5815C12.2284 26.0433 12.2678 26.4901 12.3206 26.9215L14.3058 26.6785ZM14.1991 25.4695C14.1745 25.0264 14.154 24.5746 14.1375 24.1143L12.1388 24.1857C12.1557 24.6587 12.1768 25.1236 12.2022 25.5805L14.1991 25.4695ZM14.138 24.1325C14.1298 23.6633 14.1257 23.1942 14.1257 22.725H12.1257C12.1257 23.2058 12.1299 23.6867 12.1383 24.1675L14.138 24.1325ZM14.1253 22.7528C14.1417 22.162 14.1663 21.5713 14.1991 20.9805L12.2022 20.8695C12.1684 21.4787 12.143 22.088 12.1261 22.6972L14.1253 22.7528ZM14.1991 20.9805C14.2316 20.3958 14.2762 19.8375 14.3326 19.3055L12.3438 19.0945C12.2835 19.6625 12.2364 20.2542 12.2022 20.8695L14.1991 20.9805ZM14.3328 19.3039C14.3894 18.7621 14.4532 18.2892 14.5235 17.883L12.5528 17.542C12.4731 18.0024 12.4037 18.5212 12.3436 19.0961L14.3328 19.3039ZM14.5208 17.8979C14.5998 17.4792 14.676 17.1859 14.7431 16.9969L12.8583 16.3281C12.742 16.6558 12.6432 17.0624 12.5555 17.5271L14.5208 17.8979ZM14.7441 16.994C14.9253 16.4784 15.146 16.1242 15.3784 15.8864L13.948 14.4886C13.4637 14.9842 13.1094 15.6132 12.8572 16.331L14.7441 16.994ZM15.3784 15.8864C15.6313 15.6276 15.9104 15.4527 16.222 15.347L15.5794 13.453C14.9577 13.664 14.4117 14.0141 13.948 14.4886L15.3784 15.8864ZM16.237 15.3417C16.5929 15.2146 16.9665 15.15 17.3632 15.15V13.15C16.7432 13.15 16.1418 13.252 15.5643 13.4583L16.237 15.3417ZM17.3632 15.15C17.7954 15.15 18.1131 15.2442 18.3563 15.392L19.3951 13.683C18.7882 13.3141 18.0976 13.15 17.3632 13.15V15.15ZM18.3636 15.3964C18.6132 15.5453 18.8169 15.7638 18.9723 16.0912L20.7791 15.2338C20.4678 14.5779 20.0048 14.0464 19.3877 13.6786L18.3636 15.3964ZM18.9759 16.0988C19.0833 16.3204 19.2006 16.6168 19.3251 16.9979L21.2263 16.3771C21.0841 15.9415 20.9347 15.5546 20.7755 15.2262L18.9759 16.0988ZM19.3251 16.9979C19.4509 17.3832 19.5698 17.7952 19.6816 18.2342L21.6198 17.7408C21.4982 17.2632 21.3671 16.8084 21.2263 16.3771L19.3251 16.9979ZM19.6859 18.2506C19.8065 18.6926 19.9149 19.1343 20.0112 19.5757L21.9652 19.1493C21.8615 18.674 21.7449 18.199 21.6154 17.7244L19.6859 18.2506ZM20.016 19.5966C20.1215 20.0351 20.21 20.4375 20.2818 20.8045L22.2446 20.4205C22.1664 20.0208 22.0715 19.5899 21.9604 19.1284L20.016 19.5966ZM20.2813 20.802C20.3786 21.3061 20.4917 21.7662 20.6228 22.1782L22.5286 21.5718C22.4264 21.2505 22.3311 20.8689 22.2451 20.423L20.2813 20.802ZM20.6315 22.2044C20.8035 22.6974 21.2322 23.4125 22.1257 23.4125V21.4125C22.1922 21.4125 22.2681 21.4255 22.3438 21.4574C22.4184 21.4889 22.472 21.5299 22.5059 21.5629C22.5648 21.6206 22.554 21.6434 22.5199 21.5456L20.6315 22.2044ZM22.1257 23.4125C22.4725 23.4125 22.8071 23.298 23.0832 23.0668C23.3416 22.8504 23.4977 22.5756 23.5952 22.3249L21.7312 21.6001C21.712 21.6494 21.7201 21.5996 21.7994 21.5332C21.8412 21.4982 21.8953 21.4653 21.9595 21.4424C22.0231 21.4197 22.0811 21.4125 22.1257 21.4125V23.4125ZM23.5863 22.3471C23.7425 21.9721 23.8569 21.5686 23.9346 21.1414L21.9668 20.7836C21.9111 21.0898 21.8339 21.3529 21.7401 21.5779L23.5863 22.3471ZM23.9386 21.1175C24.0044 20.6981 24.0786 20.2489 24.1611 19.7699L22.1902 19.4301C22.1061 19.9177 22.0303 20.3769 21.9628 20.8075L23.9386 21.1175ZM24.1611 19.7699C24.2424 19.2985 24.3318 18.8314 24.4292 18.3685L22.4721 17.9565C22.3696 18.4436 22.2756 18.9348 22.1902 19.4301L24.1611 19.7699ZM24.4265 18.3812C24.532 17.9103 24.6412 17.4658 24.7538 17.0475L22.8226 16.5275C22.7019 16.9759 22.586 17.448 22.4749 17.9438L24.4265 18.3812ZM24.749 17.0647C24.8686 16.6501 24.9857 16.2922 25.0995 15.9886L23.2269 15.2864C23.0907 15.6494 22.9578 16.0583 22.8274 16.5103L24.749 17.0647ZM25.0669 16.0656C25.2182 15.7461 25.4135 15.5308 25.6478 15.3826L24.5785 13.6924C23.9962 14.0609 23.5581 14.5789 23.2594 15.2094L25.0669 16.0656ZM25.6401 15.3874C25.8548 15.2543 26.1902 15.15 26.7132 15.15V13.15C25.9361 13.15 25.2049 13.3041 24.5862 13.6876L25.6401 15.3874ZM26.7132 15.15C27.0734 15.15 27.3767 15.2146 27.6374 15.3287L28.439 13.4963C27.8997 13.2604 27.3196 13.15 26.7132 13.15V15.15ZM27.6536 15.3356C27.9231 15.4479 28.17 15.6149 28.397 15.8479L29.8294 14.4521C29.4231 14.0351 28.9533 13.7104 28.4228 13.4894L27.6536 15.3356ZM28.397 15.8479C28.6222 16.079 28.8274 16.3792 29.0034 16.765L30.823 15.935C30.5656 15.3708 30.2375 14.871 29.8294 14.4521L28.397 15.8479ZM29.015 16.7896C29.1556 17.077 29.2969 17.5079 29.4211 18.1134L31.3803 17.7116C31.2378 17.0171 31.0541 16.4063 30.8114 15.9104L29.015 16.7896ZM29.4242 18.1281C29.5549 18.7203 29.6578 19.4068 29.7299 20.1915L31.7215 20.0085C31.6436 19.1599 31.5298 18.3881 31.3772 17.6969L29.4242 18.1281ZM29.73 20.1924C29.8025 20.9742 29.8471 21.7955 29.8634 22.6564L31.863 22.6186C31.8459 21.7129 31.7989 20.8424 31.7214 20.0076L29.73 20.1924ZM29.8632 22.6375C29.8632 22.6384 29.8632 22.6392 29.8632 22.6401C29.8632 22.641 29.8632 22.6418 29.8632 22.6427C29.8632 22.6435 29.8632 22.6444 29.8632 22.6453C29.8632 22.6461 29.8632 22.647 29.8632 22.6479C29.8632 22.6487 29.8632 22.6496 29.8632 22.6504C29.8632 22.6513 29.8632 22.6522 29.8632 22.653C29.8632 22.6539 29.8632 22.6548 29.8632 22.6556C29.8632 22.6565 29.8632 22.6573 29.8632 22.6582C29.8632 22.6591 29.8632 22.6599 29.8632 22.6608C29.8632 22.6617 29.8632 22.6625 29.8632 22.6634C29.8632 22.6642 29.8632 22.6651 29.8632 22.666C29.8632 22.6668 29.8632 22.6677 29.8632 22.6686C29.8632 22.6694 29.8632 22.6703 29.8632 22.6711C29.8632 22.672 29.8632 22.6729 29.8632 22.6737C29.8632 22.6746 29.8632 22.6755 29.8632 22.6763C29.8632 22.6772 29.8632 22.678 29.8632 22.6789C29.8632 22.6798 29.8632 22.6806 29.8632 22.6815C29.8632 22.6824 29.8632 22.6832 29.8632 22.6841C29.8632 22.6849 29.8632 22.6858 29.8632 22.6867C29.8632 22.6875 29.8632 22.6884 29.8632 22.6893C29.8632 22.6901 29.8632 22.691 29.8632 22.6918C29.8632 22.6927 29.8632 22.6936 29.8632 22.6944C29.8632 22.6953 29.8632 22.6962 29.8632 22.697C29.8632 22.6979 29.8632 22.6987 29.8632 22.6996C29.8632 22.7005 29.8632 22.7013 29.8632 22.7022C29.8632 22.7031 29.8632 22.7039 29.8632 22.7048C29.8632 22.7056 29.8632 22.7065 29.8632 22.7074C29.8632 22.7082 29.8632 22.7091 29.8632 22.71C29.8632 22.7108 29.8632 22.7117 29.8632 22.7125C29.8632 22.7134 29.8632 22.7143 29.8632 22.7151C29.8632 22.716 29.8632 22.7169 29.8632 22.7177C29.8632 22.7186 29.8632 22.7194 29.8632 22.7203C29.8632 22.7212 29.8632 22.722 29.8632 22.7229C29.8632 22.7238 29.8632 22.7246 29.8632 22.7255C29.8632 22.7264 29.8632 22.7272 29.8632 22.7281C29.8632 22.7289 29.8632 22.7298 29.8632 22.7307C29.8632 22.7315 29.8632 22.7324 29.8632 22.7333C29.8632 22.7341 29.8632 22.735 29.8632 22.7358C29.8632 22.7367 29.8632 22.7376 29.8632 22.7384C29.8632 22.7393 29.8632 22.7402 29.8632 22.741C29.8632 22.7419 29.8632 22.7427 29.8632 22.7436C29.8632 22.7445 29.8632 22.7453 29.8632 22.7462C29.8632 22.7471 29.8632 22.7479 29.8632 22.7488C29.8632 22.7496 29.8632 22.7505 29.8632 22.7514C29.8632 22.7522 29.8632 22.7531 29.8632 22.754C29.8632 22.7548 29.8632 22.7557 29.8632 22.7565C29.8632 22.7574 29.8632 22.7583 29.8632 22.7591C29.8632 22.76 29.8632 22.7609 29.8632 22.7617C29.8632 22.7626 29.8632 22.7634 29.8632 22.7643C29.8632 22.7652 29.8632 22.766 29.8632 22.7669C29.8632 22.7678 29.8632 22.7686 29.8632 22.7695C29.8632 22.7703 29.8632 22.7712 29.8632 22.7721C29.8632 22.7729 29.8632 22.7738 29.8632 22.7747C29.8632 22.7755 29.8632 22.7764 29.8632 22.7772C29.8632 22.7781 29.8632 22.779 29.8632 22.7798C29.8632 22.7807 29.8632 22.7816 29.8632 22.7824C29.8632 22.7833 29.8632 22.7841 29.8632 22.785C29.8632 22.7859 29.8632 22.7867 29.8632 22.7876C29.8632 22.7885 29.8632 22.7893 29.8632 22.7902C29.8632 22.791 29.8632 22.7919 29.8632 22.7928C29.8632 22.7936 29.8632 22.7945 29.8632 22.7954C29.8632 22.7962 29.8632 22.7971 29.8632 22.7979C29.8632 22.7988 29.8632 22.7997 29.8632 22.8005C29.8632 22.8014 29.8632 22.8023 29.8632 22.8031C29.8632 22.804 29.8632 22.8049 29.8632 22.8057C29.8632 22.8066 29.8632 22.8074 29.8632 22.8083C29.8632 22.8092 29.8632 22.81 29.8632 22.8109C29.8632 22.8118 29.8632 22.8126 29.8632 22.8135C29.8632 22.8143 29.8632 22.8152 29.8632 22.8161C29.8632 22.8169 29.8632 22.8178 29.8632 22.8187C29.8632 22.8195 29.8632 22.8204 29.8632 22.8212C29.8632 22.8221 29.8632 22.823 29.8632 22.8238C29.8632 22.8247 29.8632 22.8256 29.8632 22.8264C29.8632 22.8273 29.8632 22.8281 29.8632 22.829C29.8632 22.8299 29.8632 22.8307 29.8632 22.8316C29.8632 22.8325 29.8632 22.8333 29.8632 22.8342C29.8632 22.835 29.8632 22.8359 29.8632 22.8368C29.8632 22.8376 29.8632 22.8385 29.8632 22.8394C29.8632 22.8402 29.8632 22.8411 29.8632 22.8419C29.8632 22.8428 29.8632 22.8437 29.8632 22.8445C29.8632 22.8454 29.8632 22.8463 29.8632 22.8471C29.8632 22.848 29.8632 22.8488 29.8632 22.8497C29.8632 22.8506 29.8632 22.8514 29.8632 22.8523C29.8632 22.8532 29.8632 22.854 29.8632 22.8549C29.8632 22.8557 29.8632 22.8566 29.8632 22.8575C29.8632 22.8583 29.8632 22.8592 29.8632 22.8601C29.8632 22.8609 29.8632 22.8618 29.8632 22.8626C29.8632 22.8635 29.8632 22.8644 29.8632 22.8652C29.8632 22.8661 29.8632 22.867 29.8632 22.8678C29.8632 22.8687 29.8632 22.8695 29.8632 22.8704C29.8632 22.8713 29.8632 22.8721 29.8632 22.873C29.8632 22.8739 29.8632 22.8747 29.8632 22.8756C29.8632 22.8764 29.8632 22.8773 29.8632 22.8782C29.8632 22.879 29.8632 22.8799 29.8632 22.8808C29.8632 22.8816 29.8632 22.8825 29.8632 22.8833C29.8632 22.8842 29.8632 22.8851 29.8632 22.8859C29.8632 22.8868 29.8632 22.8877 29.8632 22.8885C29.8632 22.8894 29.8632 22.8903 29.8632 22.8911C29.8632 22.892 29.8632 22.8928 29.8632 22.8937C29.8632 22.8946 29.8632 22.8954 29.8632 22.8963C29.8632 22.8972 29.8632 22.898 29.8632 22.8989C29.8632 22.8997 29.8632 22.9006 29.8632 22.9015C29.8632 22.9023 29.8632 22.9032 29.8632 22.9041C29.8632 22.9049 29.8632 22.9058 29.8632 22.9066C29.8632 22.9075 29.8632 22.9084 29.8632 22.9092C29.8632 22.9101 29.8632 22.911 29.8632 22.9118C29.8632 22.9127 29.8632 22.9135 29.8632 22.9144C29.8632 22.9153 29.8632 22.9161 29.8632 22.917C29.8632 22.9179 29.8632 22.9187 29.8632 22.9196C29.8632 22.9204 29.8632 22.9213 29.8632 22.9222C29.8632 22.923 29.8632 22.9239 29.8632 22.9248C29.8632 22.9256 29.8632 22.9265 29.8632 22.9273C29.8632 22.9282 29.8632 22.9291 29.8632 22.9299C29.8632 22.9308 29.8632 22.9317 29.8632 22.9325C29.8632 22.9334 29.8632 22.9342 29.8632 22.9351C29.8632 22.936 29.8632 22.9368 29.8632 22.9377C29.8632 22.9386 29.8632 22.9394 29.8632 22.9403C29.8632 22.9411 29.8632 22.942 29.8632 22.9429C29.8632 22.9437 29.8632 22.9446 29.8632 22.9455C29.8632 22.9463 29.8632 22.9472 29.8632 22.948C29.8632 22.9489 29.8632 22.9498 29.8632 22.9506C29.8632 22.9515 29.8632 22.9524 29.8632 22.9532C29.8632 22.9541 29.8632 22.9549 29.8632 22.9558C29.8632 22.9567 29.8632 22.9575 29.8632 22.9584C29.8632 22.9593 29.8632 22.9601 29.8632 22.961C29.8632 22.9618 29.8632 22.9627 29.8632 22.9636C29.8632 22.9644 29.8632 22.9653 29.8632 22.9662C29.8632 22.967 29.8632 22.9679 29.8632 22.9687C29.8632 22.9696 29.8632 22.9705 29.8632 22.9713C29.8632 22.9722 29.8632 22.9731 29.8632 22.9739C29.8632 22.9748 29.8632 22.9757 29.8632 22.9765C29.8632 22.9774 29.8632 22.9782 29.8632 22.9791C29.8632 22.98 29.8632 22.9808 29.8632 22.9817C29.8632 22.9826 29.8632 22.9834 29.8632 22.9843C29.8632 22.9851 29.8632 22.986 29.8632 22.9869C29.8632 22.9877 29.8632 22.9886 29.8632 22.9895C29.8632 22.9903 29.8632 22.9912 29.8632 22.992C29.8632 22.9929 29.8632 22.9938 29.8632 22.9946C29.8632 22.9955 29.8632 22.9964 29.8632 22.9972C29.8632 22.9981 29.8632 22.9989 29.8632 22.9998C29.8632 23.0007 29.8632 23.0015 29.8632 23.0024C29.8632 23.0033 29.8632 23.0041 29.8632 23.005C29.8632 23.0058 29.8632 23.0067 29.8632 23.0076C29.8632 23.0084 29.8632 23.0093 29.8632 23.0102C29.8632 23.011 29.8632 23.0119 29.8632 23.0127C29.8632 23.0136 29.8632 23.0145 29.8632 23.0153C29.8632 23.0162 29.8632 23.0171 29.8632 23.0179C29.8632 23.0188 29.8632 23.0196 29.8632 23.0205C29.8632 23.0214 29.8632 23.0222 29.8632 23.0231C29.8632 23.024 29.8632 23.0248 29.8632 23.0257C29.8632 23.0265 29.8632 23.0274 29.8632 23.0283C29.8632 23.0291 29.8632 23.03 29.8632 23.0309C29.8632 23.0317 29.8632 23.0326 29.8632 23.0334C29.8632 23.0343 29.8632 23.0352 29.8632 23.036C29.8632 23.0369 29.8632 23.0378 29.8632 23.0386C29.8632 23.0395 29.8632 23.0403 29.8632 23.0412C29.8632 23.0421 29.8632 23.0429 29.8632 23.0438C29.8632 23.0447 29.8632 23.0455 29.8632 23.0464C29.8632 23.0472 29.8632 23.0481 29.8632 23.049C29.8632 23.0498 29.8632 23.0507 29.8632 23.0516C29.8632 23.0524 29.8632 23.0533 29.8632 23.0542C29.8632 23.055 29.8632 23.0559 29.8632 23.0567C29.8632 23.0576 29.8632 23.0585 29.8632 23.0593C29.8632 23.0602 29.8632 23.0611 29.8632 23.0619C29.8632 23.0628 29.8632 23.0636 29.8632 23.0645C29.8632 23.0654 29.8632 23.0662 29.8632 23.0671C29.8632 23.068 29.8632 23.0688 29.8632 23.0697C29.8632 23.0705 29.8632 23.0714 29.8632 23.0723C29.8632 23.0731 29.8632 23.074 29.8632 23.0749C29.8632 23.0757 29.8632 23.0766 29.8632 23.0774C29.8632 23.0783 29.8632 23.0792 29.8632 23.08C29.8632 23.0809 29.8632 23.0818 29.8632 23.0826C29.8632 23.0835 29.8632 23.0843 29.8632 23.0852C29.8632 23.0861 29.8632 23.0869 29.8632 23.0878C29.8632 23.0887 29.8632 23.0895 29.8632 23.0904C29.8632 23.0912 29.8632 23.0921 29.8632 23.093C29.8632 23.0938 29.8632 23.0947 29.8632 23.0956C29.8632 23.0964 29.8632 23.0973 29.8632 23.0981C29.8632 23.099 29.8632 23.0999 29.8632 23.1007C29.8632 23.1016 29.8632 23.1025 29.8632 23.1033C29.8632 23.1042 29.8632 23.105 29.8632 23.1059C29.8632 23.1068 29.8632 23.1076 29.8632 23.1085C29.8632 23.1094 29.8632 23.1102 29.8632 23.1111C29.8632 23.1119 29.8632 23.1128 29.8632 23.1137C29.8632 23.1145 29.8632 23.1154 29.8632 23.1163C29.8632 23.1171 29.8632 23.118 29.8632 23.1188C29.8632 23.1197 29.8632 23.1206 29.8632 23.1214C29.8632 23.1223 29.8632 23.1232 29.8632 23.124C29.8632 23.1249 29.8632 23.1257 29.8632 23.1266C29.8632 23.1275 29.8632 23.1283 29.8632 23.1292C29.8632 23.1301 29.8632 23.1309 29.8632 23.1318C29.8632 23.1326 29.8632 23.1335 29.8632 23.1344C29.8632 23.1352 29.8632 23.1361 29.8632 23.137C29.8632 23.1378 29.8632 23.1387 29.8632 23.1396C29.8632 23.1404 29.8632 23.1413 29.8632 23.1421C29.8632 23.143 29.8632 23.1439 29.8632 23.1447C29.8632 23.1456 29.8632 23.1465 29.8632 23.1473C29.8632 23.1482 29.8632 23.149 29.8632 23.1499C29.8632 23.1508 29.8632 23.1516 29.8632 23.1525C29.8632 23.1534 29.8632 23.1542 29.8632 23.1551C29.8632 23.1559 29.8632 23.1568 29.8632 23.1577C29.8632 23.1585 29.8632 23.1594 29.8632 23.1603C29.8632 23.1611 29.8632 23.162 29.8632 23.1628C29.8632 23.1637 29.8632 23.1646 29.8632 23.1654C29.8632 23.1663 29.8632 23.1672 29.8632 23.168C29.8632 23.1689 29.8632 23.1697 29.8632 23.1706C29.8632 23.1715 29.8632 23.1723 29.8632 23.1732C29.8632 23.1741 29.8632 23.1749 29.8632 23.1758C29.8632 23.1766 29.8632 23.1775 29.8632 23.1784C29.8632 23.1792 29.8632 23.1801 29.8632 23.181C29.8632 23.1818 29.8632 23.1827 29.8632 23.1835C29.8632 23.1844 29.8632 23.1853 29.8632 23.1861C29.8632 23.187 29.8632 23.1879 29.8632 23.1887C29.8632 23.1896 29.8632 23.1904 29.8632 23.1913C29.8632 23.1922 29.8632 23.193 29.8632 23.1939C29.8632 23.1948 29.8632 23.1956 29.8632 23.1965C29.8632 23.1973 29.8632 23.1982 29.8632 23.1991C29.8632 23.1999 29.8632 23.2008 29.8632 23.2017C29.8632 23.2025 29.8632 23.2034 29.8632 23.2042C29.8632 23.2051 29.8632 23.206 29.8632 23.2068C29.8632 23.2077 29.8632 23.2086 29.8632 23.2094C29.8632 23.2103 29.8632 23.2111 29.8632 23.212C29.8632 23.2129 29.8632 23.2137 29.8632 23.2146C29.8632 23.2155 29.8632 23.2163 29.8632 23.2172C29.8632 23.218 29.8632 23.2189 29.8632 23.2198C29.8632 23.2206 29.8632 23.2215 29.8632 23.2224C29.8632 23.2232 29.8632 23.2241 29.8632 23.225C29.8632 23.2258 29.8632 23.2267 29.8632 23.2275C29.8632 23.2284 29.8632 23.2293 29.8632 23.2301C29.8632 23.231 29.8632 23.2319 29.8632 23.2327C29.8632 23.2336 29.8632 23.2344 29.8632 23.2353C29.8632 23.2362 29.8632 23.237 29.8632 23.2379C29.8632 23.2388 29.8632 23.2396 29.8632 23.2405C29.8632 23.2413 29.8632 23.2422 29.8632 23.2431C29.8632 23.2439 29.8632 23.2448 29.8632 23.2457C29.8632 23.2465 29.8632 23.2474 29.8632 23.2482C29.8632 23.2491 29.8632 23.25 29.8632 23.2508C29.8632 23.2517 29.8632 23.2526 29.8632 23.2534C29.8632 23.2543 29.8632 23.2551 29.8632 23.256C29.8632 23.2569 29.8632 23.2577 29.8632 23.2586C29.8632 23.2595 29.8632 23.2603 29.8632 23.2612C29.8632 23.262 29.8632 23.2629 29.8632 23.2638C29.8632 23.2646 29.8632 23.2655 29.8632 23.2664C29.8632 23.2672 29.8632 23.2681 29.8632 23.2689C29.8632 23.2698 29.8632 23.2707 29.8632 23.2715C29.8632 23.2724 29.8632 23.2733 29.8632 23.2741C29.8632 23.275 29.8632 23.2758 29.8632 23.2767C29.8632 23.2776 29.8632 23.2784 29.8632 23.2793C29.8632 23.2802 29.8632 23.281 29.8632 23.2819C29.8632 23.2827 29.8632 23.2836 29.8632 23.2845C29.8632 23.2853 29.8632 23.2862 29.8632 23.2871C29.8632 23.2879 29.8632 23.2888 29.8632 23.2896C29.8632 23.2905 29.8632 23.2914 29.8632 23.2922C29.8632 23.2931 29.8632 23.294 29.8632 23.2948C29.8632 23.2957 29.8632 23.2965 29.8632 23.2974C29.8632 23.2983 29.8632 23.2991 29.8632 23.3C29.8632 23.3009 29.8632 23.3017 29.8632 23.3026C29.8632 23.3035 29.8632 23.3043 29.8632 23.3052C29.8632 23.306 29.8632 23.3069 29.8632 23.3078C29.8632 23.3086 29.8632 23.3095 29.8632 23.3104C29.8632 23.3112 29.8632 23.3121 29.8632 23.3129C29.8632 23.3138 29.8632 23.3147 29.8632 23.3155C29.8632 23.3164 29.8632 23.3173 29.8632 23.3181C29.8632 23.319 29.8632 23.3198 29.8632 23.3207C29.8632 23.3216 29.8632 23.3224 29.8632 23.3233C29.8632 23.3242 29.8632 23.325 29.8632 23.3259C29.8632 23.3267 29.8632 23.3276 29.8632 23.3285C29.8632 23.3293 29.8632 23.3302 29.8632 23.3311C29.8632 23.3319 29.8632 23.3328 29.8632 23.3336C29.8632 23.3345 29.8632 23.3354 29.8632 23.3362C29.8632 23.3371 29.8632 23.338 29.8632 23.3388C29.8632 23.3397 29.8632 23.3405 29.8632 23.3414C29.8632 23.3423 29.8632 23.3431 29.8632 23.344C29.8632 23.3449 29.8632 23.3457 29.8632 23.3466C29.8632 23.3474 29.8632 23.3483 29.8632 23.3492C29.8632 23.35 29.8632 23.3509 29.8632 23.3518C29.8632 23.3526 29.8632 23.3535 29.8632 23.3543C29.8632 23.3552 29.8632 23.3561 29.8632 23.3569C29.8632 23.3578 29.8632 23.3587 29.8632 23.3595C29.8632 23.3604 29.8632 23.3612 29.8632 23.3621C29.8632 23.363 29.8632 23.3638 29.8632 23.3647C29.8632 23.3656 29.8632 23.3664 29.8632 23.3673C29.8632 23.3681 29.8632 23.369 29.8632 23.3699C29.8632 23.3707 29.8632 23.3716 29.8632 23.3725C29.8632 23.3733 29.8632 23.3742 29.8632 23.375C29.8632 23.3759 29.8632 23.3768 29.8632 23.3776C29.8632 23.3785 29.8632 23.3794 29.8632 23.3802C29.8632 23.3811 29.8632 23.3819 29.8632 23.3828C29.8632 23.3837 29.8632 23.3845 29.8632 23.3854C29.8632 23.3863 29.8632 23.3871 29.8632 23.388C29.8632 23.3889 29.8632 23.3897 29.8632 23.3906C29.8632 23.3914 29.8632 23.3923 29.8632 23.3932C29.8632 23.394 29.8632 23.3949 29.8632 23.3958C29.8632 23.3966 29.8632 23.3975 29.8632 23.3983C29.8632 23.3992 29.8632 23.4001 29.8632 23.4009C29.8632 23.4018 29.8632 23.4027 29.8632 23.4035C29.8632 23.4044 29.8632 23.4052 29.8632 23.4061C29.8632 23.407 29.8632 23.4078 29.8632 23.4087C29.8632 23.4096 29.8632 23.4104 29.8632 23.4113C29.8632 23.4121 29.8632 23.413 29.8632 23.4139C29.8632 23.4147 29.8632 23.4156 29.8632 23.4165C29.8632 23.4173 29.8632 23.4182 29.8632 23.419C29.8632 23.4199 29.8632 23.4208 29.8632 23.4216C29.8632 23.4225 29.8632 23.4234 29.8632 23.4242C29.8632 23.4251 29.8632 23.4259 29.8632 23.4268C29.8632 23.4277 29.8632 23.4285 29.8632 23.4294C29.8632 23.4303 29.8632 23.4311 29.8632 23.432C29.8632 23.4328 29.8632 23.4337 29.8632 23.4346C29.8632 23.4354 29.8632 23.4363 29.8632 23.4372C29.8632 23.438 29.8632 23.4389 29.8632 23.4397C29.8632 23.4406 29.8632 23.4415 29.8632 23.4423C29.8632 23.4432 29.8632 23.4441 29.8632 23.4449C29.8632 23.4458 29.8632 23.4466 29.8632 23.4475C29.8632 23.4484 29.8632 23.4492 29.8632 23.4501C29.8632 23.451 29.8632 23.4518 29.8632 23.4527C29.8632 23.4535 29.8632 23.4544 29.8632 23.4553C29.8632 23.4561 29.8632 23.457 29.8632 23.4579C29.8632 23.4587 29.8632 23.4596 29.8632 23.4604C29.8632 23.4613 29.8632 23.4622 29.8632 23.463C29.8632 23.4639 29.8632 23.4648 29.8632 23.4656C29.8632 23.4665 29.8632 23.4673 29.8632 23.4682C29.8632 23.4691 29.8632 23.4699 29.8632 23.4708C29.8632 23.4717 29.8632 23.4725 29.8632 23.4734C29.8632 23.4743 29.8632 23.4751 29.8632 23.476C29.8632 23.4768 29.8632 23.4777 29.8632 23.4786C29.8632 23.4794 29.8632 23.4803 29.8632 23.4812C29.8632 23.482 29.8632 23.4829 29.8632 23.4837C29.8632 23.4846 29.8632 23.4855 29.8632 23.4863C29.8632 23.4872 29.8632 23.4881 29.8632 23.4889C29.8632 23.4898 29.8632 23.4906 29.8632 23.4915C29.8632 23.4924 29.8632 23.4932 29.8632 23.4941C29.8632 23.495 29.8632 23.4958 29.8632 23.4967C29.8632 23.4975 29.8632 23.4984 29.8632 23.4993C29.8632 23.5001 29.8632 23.501 29.8632 23.5019C29.8632 23.5027 29.8632 23.5036 29.8632 23.5044C29.8632 23.5053 29.8632 23.5062 29.8632 23.507C29.8632 23.5079 29.8632 23.5088 29.8632 23.5096C29.8632 23.5105 29.8632 23.5113 29.8632 23.5122C29.8632 23.5131 29.8632 23.5139 29.8632 23.5148C29.8632 23.5157 29.8632 23.5165 29.8632 23.5174C29.8632 23.5182 29.8632 23.5191 29.8632 23.52C29.8632 23.5208 29.8632 23.5217 29.8632 23.5226C29.8632 23.5234 29.8632 23.5243 29.8632 23.5251C29.8632 23.526 29.8632 23.5269 29.8632 23.5277C29.8632 23.5286 29.8632 23.5295 29.8632 23.5303C29.8632 23.5312 29.8632 23.532 29.8632 23.5329C29.8632 23.5338 29.8632 23.5346 29.8632 23.5355C29.8632 23.5364 29.8632 23.5372 29.8632 23.5381C29.8632 23.5389 29.8632 23.5398 29.8632 23.5407C29.8632 23.5415 29.8632 23.5424 29.8632 23.5433C29.8632 23.5441 29.8632 23.545 29.8632 23.5458C29.8632 23.5467 29.8632 23.5476 29.8632 23.5484C29.8632 23.5493 29.8632 23.5502 29.8632 23.551C29.8632 23.5519 29.8632 23.5528 29.8632 23.5536C29.8632 23.5545 29.8632 23.5553 29.8632 23.5562C29.8632 23.5571 29.8632 23.5579 29.8632 23.5588C29.8632 23.5597 29.8632 23.5605 29.8632 23.5614C29.8632 23.5622 29.8632 23.5631 29.8632 23.564C29.8632 23.5648 29.8632 23.5657 29.8632 23.5666C29.8632 23.5674 29.8632 23.5683 29.8632 23.5691C29.8632 23.57 29.8632 23.5709 29.8632 23.5717C29.8632 23.5726 29.8632 23.5735 29.8632 23.5743C29.8632 23.5752 29.8632 23.576 29.8632 23.5769C29.8632 23.5778 29.8632 23.5786 29.8632 23.5795C29.8632 23.5804 29.8632 23.5812 29.8632 23.5821C29.8632 23.5829 29.8632 23.5838 29.8632 23.5847C29.8632 23.5855 29.8632 23.5864 29.8632 23.5873C29.8632 23.5881 29.8632 23.589 29.8632 23.5898C29.8632 23.5907 29.8632 23.5916 29.8632 23.5924C29.8632 23.5933 29.8632 23.5942 29.8632 23.595C29.8632 23.5959 29.8632 23.5967 29.8632 23.5976C29.8632 23.5985 29.8632 23.5993 29.8632 23.6002C29.8632 23.6011 29.8632 23.6019 29.8632 23.6028C29.8632 23.6036 29.8632 23.6045 29.8632 23.6054C29.8632 23.6062 29.8632 23.6071 29.8632 23.608C29.8632 23.6088 29.8632 23.6097 29.8632 23.6105C29.8632 23.6114 29.8632 23.6123 29.8632 23.6131C29.8632 23.614 29.8632 23.6149 29.8632 23.6157C29.8632 23.6166 29.8632 23.6174 29.8632 23.6183C29.8632 23.6192 29.8632 23.62 29.8632 23.6209C29.8632 23.6218 29.8632 23.6226 29.8632 23.6235C29.8632 23.6243 29.8632 23.6252 29.8632 23.6261C29.8632 23.6269 29.8632 23.6278 29.8632 23.6287C29.8632 23.6295 29.8632 23.6304 29.8632 23.6312C29.8632 23.6321 29.8632 23.633 29.8632 23.6338C29.8632 23.6347 29.8632 23.6356 29.8632 23.6364C29.8632 23.6373 29.8632 23.6382 29.8632 23.639C29.8632 23.6399 29.8632 23.6407 29.8632 23.6416C29.8632 23.6425 29.8632 23.6433 29.8632 23.6442C29.8632 23.6451 29.8632 23.6459 29.8632 23.6468C29.8632 23.6476 29.8632 23.6485 29.8632 23.6494C29.8632 23.6502 29.8632 23.6511 29.8632 23.652C29.8632 23.6528 29.8632 23.6537 29.8632 23.6545C29.8632 23.6554 29.8632 23.6563 29.8632 23.6571C29.8632 23.658 29.8632 23.6589 29.8632 23.6597C29.8632 23.6606 29.8632 23.6614 29.8632 23.6623C29.8632 23.6632 29.8632 23.664 29.8632 23.6649C29.8632 23.6658 29.8632 23.6666 29.8632 23.6675C29.8632 23.6683 29.8632 23.6692 29.8632 23.6701C29.8632 23.6709 29.8632 23.6718 29.8632 23.6727C29.8632 23.6735 29.8632 23.6744 29.8632 23.6752C29.8632 23.6761 29.8632 23.677 29.8632 23.6778C29.8632 23.6787 29.8632 23.6796 29.8632 23.6804C29.8632 23.6813 29.8632 23.6821 29.8632 23.683C29.8632 23.6839 29.8632 23.6847 29.8632 23.6856C29.8632 23.6865 29.8632 23.6873 29.8632 23.6882C29.8632 23.689 29.8632 23.6899 29.8632 23.6908C29.8632 23.6916 29.8632 23.6925 29.8632 23.6934C29.8632 23.6942 29.8632 23.6951 29.8632 23.6959C29.8632 23.6968 29.8632 23.6977 29.8632 23.6985C29.8632 23.6994 29.8632 23.7003 29.8632 23.7011C29.8632 23.702 29.8632 23.7028 29.8632 23.7037C29.8632 23.7046 29.8632 23.7054 29.8632 23.7063C29.8632 23.7072 29.8632 23.708 29.8632 23.7089C29.8632 23.7097 29.8632 23.7106 29.8632 23.7115C29.8632 23.7123 29.8632 23.7132 29.8632 23.7141C29.8632 23.7149 29.8632 23.7158 29.8632 23.7167C29.8632 23.7175 29.8632 23.7184 29.8632 23.7192C29.8632 23.7201 29.8632 23.721 29.8632 23.7218C29.8632 23.7227 29.8632 23.7236 29.8632 23.7244C29.8632 23.7253 29.8632 23.7261 29.8632 23.727C29.8632 23.7279 29.8632 23.7287 29.8632 23.7296C29.8632 23.7305 29.8632 23.7313 29.8632 23.7322C29.8632 23.733 29.8632 23.7339 29.8632 23.7348C29.8632 23.7356 29.8632 23.7365 29.8632 23.7374C29.8632 23.7382 29.8632 23.7391 29.8632 23.7399C29.8632 23.7408 29.8632 23.7417 29.8632 23.7425C29.8632 23.7434 29.8632 23.7443 29.8632 23.7451C29.8632 23.746 29.8632 23.7468 29.8632 23.7477C29.8632 23.7486 29.8632 23.7494 29.8632 23.7503C29.8632 23.7512 29.8632 23.752 29.8632 23.7529C29.8632 23.7537 29.8632 23.7546 29.8632 23.7555C29.8632 23.7563 29.8632 23.7572 29.8632 23.7581C29.8632 23.7589 29.8632 23.7598 29.8632 23.7606C29.8632 23.7615 29.8632 23.7624 29.8632 23.7632C29.8632 23.7641 29.8632 23.765 29.8632 23.7658C29.8632 23.7667 29.8632 23.7675 29.8632 23.7684C29.8632 23.7693 29.8632 23.7701 29.8632 23.771C29.8632 23.7719 29.8632 23.7727 29.8632 23.7736C29.8632 23.7744 29.8632 23.7753 29.8632 23.7762C29.8632 23.777 29.8632 23.7779 29.8632 23.7788C29.8632 23.7796 29.8632 23.7805 29.8632 23.7813C29.8632 23.7822 29.8632 23.7831 29.8632 23.7839C29.8632 23.7848 29.8632 23.7857 29.8632 23.7865C29.8632 23.7874 29.8632 23.7882 29.8632 23.7891C29.8632 23.79 29.8632 23.7908 29.8632 23.7917C29.8632 23.7926 29.8632 23.7934 29.8632 23.7943C29.8632 23.7951 29.8632 23.796 29.8632 23.7969C29.8632 23.7977 29.8632 23.7986 29.8632 23.7995C29.8632 23.8003 29.8632 23.8012 29.8632 23.8021C29.8632 23.8029 29.8632 23.8038 29.8632 23.8046C29.8632 23.8055 29.8632 23.8064 29.8632 23.8072C29.8632 23.8081 29.8632 23.809 29.8632 23.8098C29.8632 23.8107 29.8632 23.8115 29.8632 23.8124C29.8632 23.8133 29.8632 23.8141 29.8632 23.815C29.8632 23.8159 29.8632 23.8167 29.8632 23.8176C29.8632 23.8184 29.8632 23.8193 29.8632 23.8202C29.8632 23.821 29.8632 23.8219 29.8632 23.8228C29.8632 23.8236 29.8632 23.8245 29.8632 23.8253C29.8632 23.8262 29.8632 23.8271 29.8632 23.8279C29.8632 23.8288 29.8632 23.8297 29.8632 23.8305C29.8632 23.8314 29.8632 23.8322 29.8632 23.8331C29.8632 23.834 29.8632 23.8348 29.8632 23.8357C29.8632 23.8366 29.8632 23.8374 29.8632 23.8383C29.8632 23.8391 29.8632 23.84 29.8632 23.8409C29.8632 23.8417 29.8632 23.8426 29.8632 23.8435C29.8632 23.8443 29.8632 23.8452 29.8632 23.846C29.8632 23.8469 29.8632 23.8478 29.8632 23.8486C29.8632 23.8495 29.8632 23.8504 29.8632 23.8512C29.8632 23.8521 29.8632 23.8529 29.8632 23.8538C29.8632 23.8547 29.8632 23.8555 29.8632 23.8564C29.8632 23.8573 29.8632 23.8581 29.8632 23.859C29.8632 23.8598 29.8632 23.8607 29.8632 23.8616C29.8632 23.8624 29.8632 23.8633 29.8632 23.8642C29.8632 23.865 29.8632 23.8659 29.8632 23.8667C29.8632 23.8676 29.8632 23.8685 29.8632 23.8693C29.8632 23.8702 29.8632 23.8711 29.8632 23.8719C29.8632 23.8728 29.8632 23.8736 29.8632 23.8745C29.8632 23.8754 29.8632 23.8762 29.8632 23.8771C29.8632 23.878 29.8632 23.8788 29.8632 23.8797C29.8632 23.8805 29.8632 23.8814 29.8632 23.8823C29.8632 23.8831 29.8632 23.884 29.8632 23.8849C29.8632 23.8857 29.8632 23.8866 29.8632 23.8875C29.8632 23.8883 29.8632 23.8892 29.8632 23.89C29.8632 23.8909 29.8632 23.8918 29.8632 23.8926C29.8632 23.8935 29.8632 23.8944 29.8632 23.8952C29.8632 23.8961 29.8632 23.8969 29.8632 23.8978C29.8632 23.8987 29.8632 23.8995 29.8632 23.9004C29.8632 23.9013 29.8632 23.9021 29.8632 23.903C29.8632 23.9038 29.8632 23.9047 29.8632 23.9056C29.8632 23.9064 29.8632 23.9073 29.8632 23.9082C29.8632 23.909 29.8632 23.9099 29.8632 23.9107C29.8632 23.9116 29.8632 23.9125 29.8632 23.9133C29.8632 23.9142 29.8632 23.9151 29.8632 23.9159C29.8632 23.9168 29.8632 23.9176 29.8632 23.9185C29.8632 23.9194 29.8632 23.9202 29.8632 23.9211C29.8632 23.922 29.8632 23.9228 29.8632 23.9237C29.8632 23.9245 29.8632 23.9254 29.8632 23.9263C29.8632 23.9271 29.8632 23.928 29.8632 23.9289C29.8632 23.9297 29.8632 23.9306 29.8632 23.9314C29.8632 23.9323 29.8632 23.9332 29.8632 23.934C29.8632 23.9349 29.8632 23.9358 29.8632 23.9366C29.8632 23.9375 29.8632 23.9383 29.8632 23.9392C29.8632 23.9401 29.8632 23.9409 29.8632 23.9418C29.8632 23.9427 29.8632 23.9435 29.8632 23.9444C29.8632 23.9452 29.8632 23.9461 29.8632 23.947C29.8632 23.9478 29.8632 23.9487 29.8632 23.9496C29.8632 23.9504 29.8632 23.9513 29.8632 23.9521C29.8632 23.953 29.8632 23.9539 29.8632 23.9547C29.8632 23.9556 29.8632 23.9565 29.8632 23.9573C29.8632 23.9582 29.8632 23.959 29.8632 23.9599C29.8632 23.9608 29.8632 23.9616 29.8632 23.9625H31.8632C31.8632 23.9616 31.8632 23.9608 31.8632 23.9599C31.8632 23.959 31.8632 23.9582 31.8632 23.9573C31.8632 23.9565 31.8632 23.9556 31.8632 23.9547C31.8632 23.9539 31.8632 23.953 31.8632 23.9521C31.8632 23.9513 31.8632 23.9504 31.8632 23.9496C31.8632 23.9487 31.8632 23.9478 31.8632 23.947C31.8632 23.9461 31.8632 23.9452 31.8632 23.9444C31.8632 23.9435 31.8632 23.9427 31.8632 23.9418C31.8632 23.9409 31.8632 23.9401 31.8632 23.9392C31.8632 23.9383 31.8632 23.9375 31.8632 23.9366C31.8632 23.9358 31.8632 23.9349 31.8632 23.934C31.8632 23.9332 31.8632 23.9323 31.8632 23.9314C31.8632 23.9306 31.8632 23.9297 31.8632 23.9289C31.8632 23.928 31.8632 23.9271 31.8632 23.9263C31.8632 23.9254 31.8632 23.9245 31.8632 23.9237C31.8632 23.9228 31.8632 23.922 31.8632 23.9211C31.8632 23.9202 31.8632 23.9194 31.8632 23.9185C31.8632 23.9176 31.8632 23.9168 31.8632 23.9159C31.8632 23.9151 31.8632 23.9142 31.8632 23.9133C31.8632 23.9125 31.8632 23.9116 31.8632 23.9107C31.8632 23.9099 31.8632 23.909 31.8632 23.9082C31.8632 23.9073 31.8632 23.9064 31.8632 23.9056C31.8632 23.9047 31.8632 23.9038 31.8632 23.903C31.8632 23.9021 31.8632 23.9013 31.8632 23.9004C31.8632 23.8995 31.8632 23.8987 31.8632 23.8978C31.8632 23.8969 31.8632 23.8961 31.8632 23.8952C31.8632 23.8944 31.8632 23.8935 31.8632 23.8926C31.8632 23.8918 31.8632 23.8909 31.8632 23.89C31.8632 23.8892 31.8632 23.8883 31.8632 23.8875C31.8632 23.8866 31.8632 23.8857 31.8632 23.8849C31.8632 23.884 31.8632 23.8831 31.8632 23.8823C31.8632 23.8814 31.8632 23.8805 31.8632 23.8797C31.8632 23.8788 31.8632 23.878 31.8632 23.8771C31.8632 23.8762 31.8632 23.8754 31.8632 23.8745C31.8632 23.8736 31.8632 23.8728 31.8632 23.8719C31.8632 23.8711 31.8632 23.8702 31.8632 23.8693C31.8632 23.8685 31.8632 23.8676 31.8632 23.8667C31.8632 23.8659 31.8632 23.865 31.8632 23.8642C31.8632 23.8633 31.8632 23.8624 31.8632 23.8616C31.8632 23.8607 31.8632 23.8598 31.8632 23.859C31.8632 23.8581 31.8632 23.8573 31.8632 23.8564C31.8632 23.8555 31.8632 23.8547 31.8632 23.8538C31.8632 23.8529 31.8632 23.8521 31.8632 23.8512C31.8632 23.8504 31.8632 23.8495 31.8632 23.8486C31.8632 23.8478 31.8632 23.8469 31.8632 23.846C31.8632 23.8452 31.8632 23.8443 31.8632 23.8435C31.8632 23.8426 31.8632 23.8417 31.8632 23.8409C31.8632 23.84 31.8632 23.8391 31.8632 23.8383C31.8632 23.8374 31.8632 23.8366 31.8632 23.8357C31.8632 23.8348 31.8632 23.834 31.8632 23.8331C31.8632 23.8322 31.8632 23.8314 31.8632 23.8305C31.8632 23.8297 31.8632 23.8288 31.8632 23.8279C31.8632 23.8271 31.8632 23.8262 31.8632 23.8253C31.8632 23.8245 31.8632 23.8236 31.8632 23.8228C31.8632 23.8219 31.8632 23.821 31.8632 23.8202C31.8632 23.8193 31.8632 23.8184 31.8632 23.8176C31.8632 23.8167 31.8632 23.8159 31.8632 23.815C31.8632 23.8141 31.8632 23.8133 31.8632 23.8124C31.8632 23.8115 31.8632 23.8107 31.8632 23.8098C31.8632 23.809 31.8632 23.8081 31.8632 23.8072C31.8632 23.8064 31.8632 23.8055 31.8632 23.8046C31.8632 23.8038 31.8632 23.8029 31.8632 23.8021C31.8632 23.8012 31.8632 23.8003 31.8632 23.7995C31.8632 23.7986 31.8632 23.7977 31.8632 23.7969C31.8632 23.796 31.8632 23.7951 31.8632 23.7943C31.8632 23.7934 31.8632 23.7926 31.8632 23.7917C31.8632 23.7908 31.8632 23.79 31.8632 23.7891C31.8632 23.7882 31.8632 23.7874 31.8632 23.7865C31.8632 23.7857 31.8632 23.7848 31.8632 23.7839C31.8632 23.7831 31.8632 23.7822 31.8632 23.7813C31.8632 23.7805 31.8632 23.7796 31.8632 23.7788C31.8632 23.7779 31.8632 23.777 31.8632 23.7762C31.8632 23.7753 31.8632 23.7744 31.8632 23.7736C31.8632 23.7727 31.8632 23.7719 31.8632 23.771C31.8632 23.7701 31.8632 23.7693 31.8632 23.7684C31.8632 23.7675 31.8632 23.7667 31.8632 23.7658C31.8632 23.765 31.8632 23.7641 31.8632 23.7632C31.8632 23.7624 31.8632 23.7615 31.8632 23.7606C31.8632 23.7598 31.8632 23.7589 31.8632 23.7581C31.8632 23.7572 31.8632 23.7563 31.8632 23.7555C31.8632 23.7546 31.8632 23.7537 31.8632 23.7529C31.8632 23.752 31.8632 23.7512 31.8632 23.7503C31.8632 23.7494 31.8632 23.7486 31.8632 23.7477C31.8632 23.7468 31.8632 23.746 31.8632 23.7451C31.8632 23.7443 31.8632 23.7434 31.8632 23.7425C31.8632 23.7417 31.8632 23.7408 31.8632 23.7399C31.8632 23.7391 31.8632 23.7382 31.8632 23.7374C31.8632 23.7365 31.8632 23.7356 31.8632 23.7348C31.8632 23.7339 31.8632 23.733 31.8632 23.7322C31.8632 23.7313 31.8632 23.7305 31.8632 23.7296C31.8632 23.7287 31.8632 23.7279 31.8632 23.727C31.8632 23.7261 31.8632 23.7253 31.8632 23.7244C31.8632 23.7236 31.8632 23.7227 31.8632 23.7218C31.8632 23.721 31.8632 23.7201 31.8632 23.7192C31.8632 23.7184 31.8632 23.7175 31.8632 23.7167C31.8632 23.7158 31.8632 23.7149 31.8632 23.7141C31.8632 23.7132 31.8632 23.7123 31.8632 23.7115C31.8632 23.7106 31.8632 23.7097 31.8632 23.7089C31.8632 23.708 31.8632 23.7072 31.8632 23.7063C31.8632 23.7054 31.8632 23.7046 31.8632 23.7037C31.8632 23.7028 31.8632 23.702 31.8632 23.7011C31.8632 23.7003 31.8632 23.6994 31.8632 23.6985C31.8632 23.6977 31.8632 23.6968 31.8632 23.6959C31.8632 23.6951 31.8632 23.6942 31.8632 23.6934C31.8632 23.6925 31.8632 23.6916 31.8632 23.6908C31.8632 23.6899 31.8632 23.689 31.8632 23.6882C31.8632 23.6873 31.8632 23.6865 31.8632 23.6856C31.8632 23.6847 31.8632 23.6839 31.8632 23.683C31.8632 23.6821 31.8632 23.6813 31.8632 23.6804C31.8632 23.6796 31.8632 23.6787 31.8632 23.6778C31.8632 23.677 31.8632 23.6761 31.8632 23.6752C31.8632 23.6744 31.8632 23.6735 31.8632 23.6727C31.8632 23.6718 31.8632 23.6709 31.8632 23.6701C31.8632 23.6692 31.8632 23.6683 31.8632 23.6675C31.8632 23.6666 31.8632 23.6658 31.8632 23.6649C31.8632 23.664 31.8632 23.6632 31.8632 23.6623C31.8632 23.6614 31.8632 23.6606 31.8632 23.6597C31.8632 23.6589 31.8632 23.658 31.8632 23.6571C31.8632 23.6563 31.8632 23.6554 31.8632 23.6545C31.8632 23.6537 31.8632 23.6528 31.8632 23.652C31.8632 23.6511 31.8632 23.6502 31.8632 23.6494C31.8632 23.6485 31.8632 23.6476 31.8632 23.6468C31.8632 23.6459 31.8632 23.6451 31.8632 23.6442C31.8632 23.6433 31.8632 23.6425 31.8632 23.6416C31.8632 23.6407 31.8632 23.6399 31.8632 23.639C31.8632 23.6382 31.8632 23.6373 31.8632 23.6364C31.8632 23.6356 31.8632 23.6347 31.8632 23.6338C31.8632 23.633 31.8632 23.6321 31.8632 23.6312C31.8632 23.6304 31.8632 23.6295 31.8632 23.6287C31.8632 23.6278 31.8632 23.6269 31.8632 23.6261C31.8632 23.6252 31.8632 23.6243 31.8632 23.6235C31.8632 23.6226 31.8632 23.6218 31.8632 23.6209C31.8632 23.62 31.8632 23.6192 31.8632 23.6183C31.8632 23.6174 31.8632 23.6166 31.8632 23.6157C31.8632 23.6149 31.8632 23.614 31.8632 23.6131C31.8632 23.6123 31.8632 23.6114 31.8632 23.6105C31.8632 23.6097 31.8632 23.6088 31.8632 23.608C31.8632 23.6071 31.8632 23.6062 31.8632 23.6054C31.8632 23.6045 31.8632 23.6036 31.8632 23.6028C31.8632 23.6019 31.8632 23.6011 31.8632 23.6002C31.8632 23.5993 31.8632 23.5985 31.8632 23.5976C31.8632 23.5967 31.8632 23.5959 31.8632 23.595C31.8632 23.5942 31.8632 23.5933 31.8632 23.5924C31.8632 23.5916 31.8632 23.5907 31.8632 23.5898C31.8632 23.589 31.8632 23.5881 31.8632 23.5873C31.8632 23.5864 31.8632 23.5855 31.8632 23.5847C31.8632 23.5838 31.8632 23.5829 31.8632 23.5821C31.8632 23.5812 31.8632 23.5804 31.8632 23.5795C31.8632 23.5786 31.8632 23.5778 31.8632 23.5769C31.8632 23.576 31.8632 23.5752 31.8632 23.5743C31.8632 23.5735 31.8632 23.5726 31.8632 23.5717C31.8632 23.5709 31.8632 23.57 31.8632 23.5691C31.8632 23.5683 31.8632 23.5674 31.8632 23.5666C31.8632 23.5657 31.8632 23.5648 31.8632 23.564C31.8632 23.5631 31.8632 23.5622 31.8632 23.5614C31.8632 23.5605 31.8632 23.5597 31.8632 23.5588C31.8632 23.5579 31.8632 23.5571 31.8632 23.5562C31.8632 23.5553 31.8632 23.5545 31.8632 23.5536C31.8632 23.5528 31.8632 23.5519 31.8632 23.551C31.8632 23.5502 31.8632 23.5493 31.8632 23.5484C31.8632 23.5476 31.8632 23.5467 31.8632 23.5458C31.8632 23.545 31.8632 23.5441 31.8632 23.5433C31.8632 23.5424 31.8632 23.5415 31.8632 23.5407C31.8632 23.5398 31.8632 23.5389 31.8632 23.5381C31.8632 23.5372 31.8632 23.5364 31.8632 23.5355C31.8632 23.5346 31.8632 23.5338 31.8632 23.5329C31.8632 23.532 31.8632 23.5312 31.8632 23.5303C31.8632 23.5295 31.8632 23.5286 31.8632 23.5277C31.8632 23.5269 31.8632 23.526 31.8632 23.5251C31.8632 23.5243 31.8632 23.5234 31.8632 23.5226C31.8632 23.5217 31.8632 23.5208 31.8632 23.52C31.8632 23.5191 31.8632 23.5182 31.8632 23.5174C31.8632 23.5165 31.8632 23.5157 31.8632 23.5148C31.8632 23.5139 31.8632 23.5131 31.8632 23.5122C31.8632 23.5113 31.8632 23.5105 31.8632 23.5096C31.8632 23.5088 31.8632 23.5079 31.8632 23.507C31.8632 23.5062 31.8632 23.5053 31.8632 23.5044C31.8632 23.5036 31.8632 23.5027 31.8632 23.5019C31.8632 23.501 31.8632 23.5001 31.8632 23.4993C31.8632 23.4984 31.8632 23.4975 31.8632 23.4967C31.8632 23.4958 31.8632 23.495 31.8632 23.4941C31.8632 23.4932 31.8632 23.4924 31.8632 23.4915C31.8632 23.4906 31.8632 23.4898 31.8632 23.4889C31.8632 23.4881 31.8632 23.4872 31.8632 23.4863C31.8632 23.4855 31.8632 23.4846 31.8632 23.4837C31.8632 23.4829 31.8632 23.482 31.8632 23.4812C31.8632 23.4803 31.8632 23.4794 31.8632 23.4786C31.8632 23.4777 31.8632 23.4768 31.8632 23.476C31.8632 23.4751 31.8632 23.4743 31.8632 23.4734C31.8632 23.4725 31.8632 23.4717 31.8632 23.4708C31.8632 23.4699 31.8632 23.4691 31.8632 23.4682C31.8632 23.4673 31.8632 23.4665 31.8632 23.4656C31.8632 23.4648 31.8632 23.4639 31.8632 23.463C31.8632 23.4622 31.8632 23.4613 31.8632 23.4604C31.8632 23.4596 31.8632 23.4587 31.8632 23.4579C31.8632 23.457 31.8632 23.4561 31.8632 23.4553C31.8632 23.4544 31.8632 23.4535 31.8632 23.4527C31.8632 23.4518 31.8632 23.451 31.8632 23.4501C31.8632 23.4492 31.8632 23.4484 31.8632 23.4475C31.8632 23.4466 31.8632 23.4458 31.8632 23.4449C31.8632 23.4441 31.8632 23.4432 31.8632 23.4423C31.8632 23.4415 31.8632 23.4406 31.8632 23.4397C31.8632 23.4389 31.8632 23.438 31.8632 23.4372C31.8632 23.4363 31.8632 23.4354 31.8632 23.4346C31.8632 23.4337 31.8632 23.4328 31.8632 23.432C31.8632 23.4311 31.8632 23.4303 31.8632 23.4294C31.8632 23.4285 31.8632 23.4277 31.8632 23.4268C31.8632 23.4259 31.8632 23.4251 31.8632 23.4242C31.8632 23.4234 31.8632 23.4225 31.8632 23.4216C31.8632 23.4208 31.8632 23.4199 31.8632 23.419C31.8632 23.4182 31.8632 23.4173 31.8632 23.4165C31.8632 23.4156 31.8632 23.4147 31.8632 23.4139C31.8632 23.413 31.8632 23.4121 31.8632 23.4113C31.8632 23.4104 31.8632 23.4096 31.8632 23.4087C31.8632 23.4078 31.8632 23.407 31.8632 23.4061C31.8632 23.4052 31.8632 23.4044 31.8632 23.4035C31.8632 23.4027 31.8632 23.4018 31.8632 23.4009C31.8632 23.4001 31.8632 23.3992 31.8632 23.3983C31.8632 23.3975 31.8632 23.3966 31.8632 23.3958C31.8632 23.3949 31.8632 23.394 31.8632 23.3932C31.8632 23.3923 31.8632 23.3914 31.8632 23.3906C31.8632 23.3897 31.8632 23.3889 31.8632 23.388C31.8632 23.3871 31.8632 23.3863 31.8632 23.3854C31.8632 23.3845 31.8632 23.3837 31.8632 23.3828C31.8632 23.3819 31.8632 23.3811 31.8632 23.3802C31.8632 23.3794 31.8632 23.3785 31.8632 23.3776C31.8632 23.3768 31.8632 23.3759 31.8632 23.375C31.8632 23.3742 31.8632 23.3733 31.8632 23.3725C31.8632 23.3716 31.8632 23.3707 31.8632 23.3699C31.8632 23.369 31.8632 23.3681 31.8632 23.3673C31.8632 23.3664 31.8632 23.3656 31.8632 23.3647C31.8632 23.3638 31.8632 23.363 31.8632 23.3621C31.8632 23.3612 31.8632 23.3604 31.8632 23.3595C31.8632 23.3587 31.8632 23.3578 31.8632 23.3569C31.8632 23.3561 31.8632 23.3552 31.8632 23.3543C31.8632 23.3535 31.8632 23.3526 31.8632 23.3518C31.8632 23.3509 31.8632 23.35 31.8632 23.3492C31.8632 23.3483 31.8632 23.3474 31.8632 23.3466C31.8632 23.3457 31.8632 23.3449 31.8632 23.344C31.8632 23.3431 31.8632 23.3423 31.8632 23.3414C31.8632 23.3405 31.8632 23.3397 31.8632 23.3388C31.8632 23.338 31.8632 23.3371 31.8632 23.3362C31.8632 23.3354 31.8632 23.3345 31.8632 23.3336C31.8632 23.3328 31.8632 23.3319 31.8632 23.3311C31.8632 23.3302 31.8632 23.3293 31.8632 23.3285C31.8632 23.3276 31.8632 23.3267 31.8632 23.3259C31.8632 23.325 31.8632 23.3242 31.8632 23.3233C31.8632 23.3224 31.8632 23.3216 31.8632 23.3207C31.8632 23.3198 31.8632 23.319 31.8632 23.3181C31.8632 23.3173 31.8632 23.3164 31.8632 23.3155C31.8632 23.3147 31.8632 23.3138 31.8632 23.3129C31.8632 23.3121 31.8632 23.3112 31.8632 23.3104C31.8632 23.3095 31.8632 23.3086 31.8632 23.3078C31.8632 23.3069 31.8632 23.306 31.8632 23.3052C31.8632 23.3043 31.8632 23.3035 31.8632 23.3026C31.8632 23.3017 31.8632 23.3009 31.8632 23.3C31.8632 23.2991 31.8632 23.2983 31.8632 23.2974C31.8632 23.2965 31.8632 23.2957 31.8632 23.2948C31.8632 23.294 31.8632 23.2931 31.8632 23.2922C31.8632 23.2914 31.8632 23.2905 31.8632 23.2896C31.8632 23.2888 31.8632 23.2879 31.8632 23.2871C31.8632 23.2862 31.8632 23.2853 31.8632 23.2845C31.8632 23.2836 31.8632 23.2827 31.8632 23.2819C31.8632 23.281 31.8632 23.2802 31.8632 23.2793C31.8632 23.2784 31.8632 23.2776 31.8632 23.2767C31.8632 23.2758 31.8632 23.275 31.8632 23.2741C31.8632 23.2733 31.8632 23.2724 31.8632 23.2715C31.8632 23.2707 31.8632 23.2698 31.8632 23.2689C31.8632 23.2681 31.8632 23.2672 31.8632 23.2664C31.8632 23.2655 31.8632 23.2646 31.8632 23.2638C31.8632 23.2629 31.8632 23.262 31.8632 23.2612C31.8632 23.2603 31.8632 23.2595 31.8632 23.2586C31.8632 23.2577 31.8632 23.2569 31.8632 23.256C31.8632 23.2551 31.8632 23.2543 31.8632 23.2534C31.8632 23.2526 31.8632 23.2517 31.8632 23.2508C31.8632 23.25 31.8632 23.2491 31.8632 23.2482C31.8632 23.2474 31.8632 23.2465 31.8632 23.2457C31.8632 23.2448 31.8632 23.2439 31.8632 23.2431C31.8632 23.2422 31.8632 23.2413 31.8632 23.2405C31.8632 23.2396 31.8632 23.2388 31.8632 23.2379C31.8632 23.237 31.8632 23.2362 31.8632 23.2353C31.8632 23.2344 31.8632 23.2336 31.8632 23.2327C31.8632 23.2319 31.8632 23.231 31.8632 23.2301C31.8632 23.2293 31.8632 23.2284 31.8632 23.2275C31.8632 23.2267 31.8632 23.2258 31.8632 23.225C31.8632 23.2241 31.8632 23.2232 31.8632 23.2224C31.8632 23.2215 31.8632 23.2206 31.8632 23.2198C31.8632 23.2189 31.8632 23.218 31.8632 23.2172C31.8632 23.2163 31.8632 23.2155 31.8632 23.2146C31.8632 23.2137 31.8632 23.2129 31.8632 23.212C31.8632 23.2111 31.8632 23.2103 31.8632 23.2094C31.8632 23.2086 31.8632 23.2077 31.8632 23.2068C31.8632 23.206 31.8632 23.2051 31.8632 23.2042C31.8632 23.2034 31.8632 23.2025 31.8632 23.2017C31.8632 23.2008 31.8632 23.1999 31.8632 23.1991C31.8632 23.1982 31.8632 23.1973 31.8632 23.1965C31.8632 23.1956 31.8632 23.1948 31.8632 23.1939C31.8632 23.193 31.8632 23.1922 31.8632 23.1913C31.8632 23.1904 31.8632 23.1896 31.8632 23.1887C31.8632 23.1879 31.8632 23.187 31.8632 23.1861C31.8632 23.1853 31.8632 23.1844 31.8632 23.1835C31.8632 23.1827 31.8632 23.1818 31.8632 23.181C31.8632 23.1801 31.8632 23.1792 31.8632 23.1784C31.8632 23.1775 31.8632 23.1766 31.8632 23.1758C31.8632 23.1749 31.8632 23.1741 31.8632 23.1732C31.8632 23.1723 31.8632 23.1715 31.8632 23.1706C31.8632 23.1697 31.8632 23.1689 31.8632 23.168C31.8632 23.1672 31.8632 23.1663 31.8632 23.1654C31.8632 23.1646 31.8632 23.1637 31.8632 23.1628C31.8632 23.162 31.8632 23.1611 31.8632 23.1603C31.8632 23.1594 31.8632 23.1585 31.8632 23.1577C31.8632 23.1568 31.8632 23.1559 31.8632 23.1551C31.8632 23.1542 31.8632 23.1534 31.8632 23.1525C31.8632 23.1516 31.8632 23.1508 31.8632 23.1499C31.8632 23.149 31.8632 23.1482 31.8632 23.1473C31.8632 23.1465 31.8632 23.1456 31.8632 23.1447C31.8632 23.1439 31.8632 23.143 31.8632 23.1421C31.8632 23.1413 31.8632 23.1404 31.8632 23.1396C31.8632 23.1387 31.8632 23.1378 31.8632 23.137C31.8632 23.1361 31.8632 23.1352 31.8632 23.1344C31.8632 23.1335 31.8632 23.1326 31.8632 23.1318C31.8632 23.1309 31.8632 23.1301 31.8632 23.1292C31.8632 23.1283 31.8632 23.1275 31.8632 23.1266C31.8632 23.1257 31.8632 23.1249 31.8632 23.124C31.8632 23.1232 31.8632 23.1223 31.8632 23.1214C31.8632 23.1206 31.8632 23.1197 31.8632 23.1188C31.8632 23.118 31.8632 23.1171 31.8632 23.1163C31.8632 23.1154 31.8632 23.1145 31.8632 23.1137C31.8632 23.1128 31.8632 23.1119 31.8632 23.1111C31.8632 23.1102 31.8632 23.1094 31.8632 23.1085C31.8632 23.1076 31.8632 23.1068 31.8632 23.1059C31.8632 23.105 31.8632 23.1042 31.8632 23.1033C31.8632 23.1025 31.8632 23.1016 31.8632 23.1007C31.8632 23.0999 31.8632 23.099 31.8632 23.0981C31.8632 23.0973 31.8632 23.0964 31.8632 23.0956C31.8632 23.0947 31.8632 23.0938 31.8632 23.093C31.8632 23.0921 31.8632 23.0912 31.8632 23.0904C31.8632 23.0895 31.8632 23.0887 31.8632 23.0878C31.8632 23.0869 31.8632 23.0861 31.8632 23.0852C31.8632 23.0843 31.8632 23.0835 31.8632 23.0826C31.8632 23.0818 31.8632 23.0809 31.8632 23.08C31.8632 23.0792 31.8632 23.0783 31.8632 23.0774C31.8632 23.0766 31.8632 23.0757 31.8632 23.0749C31.8632 23.074 31.8632 23.0731 31.8632 23.0723C31.8632 23.0714 31.8632 23.0705 31.8632 23.0697C31.8632 23.0688 31.8632 23.068 31.8632 23.0671C31.8632 23.0662 31.8632 23.0654 31.8632 23.0645C31.8632 23.0636 31.8632 23.0628 31.8632 23.0619C31.8632 23.0611 31.8632 23.0602 31.8632 23.0593C31.8632 23.0585 31.8632 23.0576 31.8632 23.0567C31.8632 23.0559 31.8632 23.055 31.8632 23.0542C31.8632 23.0533 31.8632 23.0524 31.8632 23.0516C31.8632 23.0507 31.8632 23.0498 31.8632 23.049C31.8632 23.0481 31.8632 23.0472 31.8632 23.0464C31.8632 23.0455 31.8632 23.0447 31.8632 23.0438C31.8632 23.0429 31.8632 23.0421 31.8632 23.0412C31.8632 23.0403 31.8632 23.0395 31.8632 23.0386C31.8632 23.0378 31.8632 23.0369 31.8632 23.036C31.8632 23.0352 31.8632 23.0343 31.8632 23.0334C31.8632 23.0326 31.8632 23.0317 31.8632 23.0309C31.8632 23.03 31.8632 23.0291 31.8632 23.0283C31.8632 23.0274 31.8632 23.0265 31.8632 23.0257C31.8632 23.0248 31.8632 23.024 31.8632 23.0231C31.8632 23.0222 31.8632 23.0214 31.8632 23.0205C31.8632 23.0196 31.8632 23.0188 31.8632 23.0179C31.8632 23.0171 31.8632 23.0162 31.8632 23.0153C31.8632 23.0145 31.8632 23.0136 31.8632 23.0127C31.8632 23.0119 31.8632 23.011 31.8632 23.0102C31.8632 23.0093 31.8632 23.0084 31.8632 23.0076C31.8632 23.0067 31.8632 23.0058 31.8632 23.005C31.8632 23.0041 31.8632 23.0033 31.8632 23.0024C31.8632 23.0015 31.8632 23.0007 31.8632 22.9998C31.8632 22.9989 31.8632 22.9981 31.8632 22.9972C31.8632 22.9964 31.8632 22.9955 31.8632 22.9946C31.8632 22.9938 31.8632 22.9929 31.8632 22.992C31.8632 22.9912 31.8632 22.9903 31.8632 22.9895C31.8632 22.9886 31.8632 22.9877 31.8632 22.9869C31.8632 22.986 31.8632 22.9851 31.8632 22.9843C31.8632 22.9834 31.8632 22.9826 31.8632 22.9817C31.8632 22.9808 31.8632 22.98 31.8632 22.9791C31.8632 22.9782 31.8632 22.9774 31.8632 22.9765C31.8632 22.9757 31.8632 22.9748 31.8632 22.9739C31.8632 22.9731 31.8632 22.9722 31.8632 22.9713C31.8632 22.9705 31.8632 22.9696 31.8632 22.9687C31.8632 22.9679 31.8632 22.967 31.8632 22.9662C31.8632 22.9653 31.8632 22.9644 31.8632 22.9636C31.8632 22.9627 31.8632 22.9618 31.8632 22.961C31.8632 22.9601 31.8632 22.9593 31.8632 22.9584C31.8632 22.9575 31.8632 22.9567 31.8632 22.9558C31.8632 22.9549 31.8632 22.9541 31.8632 22.9532C31.8632 22.9524 31.8632 22.9515 31.8632 22.9506C31.8632 22.9498 31.8632 22.9489 31.8632 22.948C31.8632 22.9472 31.8632 22.9463 31.8632 22.9455C31.8632 22.9446 31.8632 22.9437 31.8632 22.9429C31.8632 22.942 31.8632 22.9411 31.8632 22.9403C31.8632 22.9394 31.8632 22.9386 31.8632 22.9377C31.8632 22.9368 31.8632 22.936 31.8632 22.9351C31.8632 22.9342 31.8632 22.9334 31.8632 22.9325C31.8632 22.9317 31.8632 22.9308 31.8632 22.9299C31.8632 22.9291 31.8632 22.9282 31.8632 22.9273C31.8632 22.9265 31.8632 22.9256 31.8632 22.9248C31.8632 22.9239 31.8632 22.923 31.8632 22.9222C31.8632 22.9213 31.8632 22.9204 31.8632 22.9196C31.8632 22.9187 31.8632 22.9179 31.8632 22.917C31.8632 22.9161 31.8632 22.9153 31.8632 22.9144C31.8632 22.9135 31.8632 22.9127 31.8632 22.9118C31.8632 22.911 31.8632 22.9101 31.8632 22.9092C31.8632 22.9084 31.8632 22.9075 31.8632 22.9066C31.8632 22.9058 31.8632 22.9049 31.8632 22.9041C31.8632 22.9032 31.8632 22.9023 31.8632 22.9015C31.8632 22.9006 31.8632 22.8997 31.8632 22.8989C31.8632 22.898 31.8632 22.8972 31.8632 22.8963C31.8632 22.8954 31.8632 22.8946 31.8632 22.8937C31.8632 22.8928 31.8632 22.892 31.8632 22.8911C31.8632 22.8903 31.8632 22.8894 31.8632 22.8885C31.8632 22.8877 31.8632 22.8868 31.8632 22.8859C31.8632 22.8851 31.8632 22.8842 31.8632 22.8833C31.8632 22.8825 31.8632 22.8816 31.8632 22.8808C31.8632 22.8799 31.8632 22.879 31.8632 22.8782C31.8632 22.8773 31.8632 22.8764 31.8632 22.8756C31.8632 22.8747 31.8632 22.8739 31.8632 22.873C31.8632 22.8721 31.8632 22.8713 31.8632 22.8704C31.8632 22.8695 31.8632 22.8687 31.8632 22.8678C31.8632 22.867 31.8632 22.8661 31.8632 22.8652C31.8632 22.8644 31.8632 22.8635 31.8632 22.8626C31.8632 22.8618 31.8632 22.8609 31.8632 22.8601C31.8632 22.8592 31.8632 22.8583 31.8632 22.8575C31.8632 22.8566 31.8632 22.8557 31.8632 22.8549C31.8632 22.854 31.8632 22.8532 31.8632 22.8523C31.8632 22.8514 31.8632 22.8506 31.8632 22.8497C31.8632 22.8488 31.8632 22.848 31.8632 22.8471C31.8632 22.8463 31.8632 22.8454 31.8632 22.8445C31.8632 22.8437 31.8632 22.8428 31.8632 22.8419C31.8632 22.8411 31.8632 22.8402 31.8632 22.8394C31.8632 22.8385 31.8632 22.8376 31.8632 22.8368C31.8632 22.8359 31.8632 22.835 31.8632 22.8342C31.8632 22.8333 31.8632 22.8325 31.8632 22.8316C31.8632 22.8307 31.8632 22.8299 31.8632 22.829C31.8632 22.8281 31.8632 22.8273 31.8632 22.8264C31.8632 22.8256 31.8632 22.8247 31.8632 22.8238C31.8632 22.823 31.8632 22.8221 31.8632 22.8212C31.8632 22.8204 31.8632 22.8195 31.8632 22.8187C31.8632 22.8178 31.8632 22.8169 31.8632 22.8161C31.8632 22.8152 31.8632 22.8143 31.8632 22.8135C31.8632 22.8126 31.8632 22.8118 31.8632 22.8109C31.8632 22.81 31.8632 22.8092 31.8632 22.8083C31.8632 22.8074 31.8632 22.8066 31.8632 22.8057C31.8632 22.8049 31.8632 22.804 31.8632 22.8031C31.8632 22.8023 31.8632 22.8014 31.8632 22.8005C31.8632 22.7997 31.8632 22.7988 31.8632 22.7979C31.8632 22.7971 31.8632 22.7962 31.8632 22.7954C31.8632 22.7945 31.8632 22.7936 31.8632 22.7928C31.8632 22.7919 31.8632 22.791 31.8632 22.7902C31.8632 22.7893 31.8632 22.7885 31.8632 22.7876C31.8632 22.7867 31.8632 22.7859 31.8632 22.785C31.8632 22.7841 31.8632 22.7833 31.8632 22.7824C31.8632 22.7816 31.8632 22.7807 31.8632 22.7798C31.8632 22.779 31.8632 22.7781 31.8632 22.7772C31.8632 22.7764 31.8632 22.7755 31.8632 22.7747C31.8632 22.7738 31.8632 22.7729 31.8632 22.7721C31.8632 22.7712 31.8632 22.7703 31.8632 22.7695C31.8632 22.7686 31.8632 22.7678 31.8632 22.7669C31.8632 22.766 31.8632 22.7652 31.8632 22.7643C31.8632 22.7634 31.8632 22.7626 31.8632 22.7617C31.8632 22.7609 31.8632 22.76 31.8632 22.7591C31.8632 22.7583 31.8632 22.7574 31.8632 22.7565C31.8632 22.7557 31.8632 22.7548 31.8632 22.754C31.8632 22.7531 31.8632 22.7522 31.8632 22.7514C31.8632 22.7505 31.8632 22.7496 31.8632 22.7488C31.8632 22.7479 31.8632 22.7471 31.8632 22.7462C31.8632 22.7453 31.8632 22.7445 31.8632 22.7436C31.8632 22.7427 31.8632 22.7419 31.8632 22.741C31.8632 22.7402 31.8632 22.7393 31.8632 22.7384C31.8632 22.7376 31.8632 22.7367 31.8632 22.7358C31.8632 22.735 31.8632 22.7341 31.8632 22.7333C31.8632 22.7324 31.8632 22.7315 31.8632 22.7307C31.8632 22.7298 31.8632 22.7289 31.8632 22.7281C31.8632 22.7272 31.8632 22.7264 31.8632 22.7255C31.8632 22.7246 31.8632 22.7238 31.8632 22.7229C31.8632 22.722 31.8632 22.7212 31.8632 22.7203C31.8632 22.7194 31.8632 22.7186 31.8632 22.7177C31.8632 22.7169 31.8632 22.716 31.8632 22.7151C31.8632 22.7143 31.8632 22.7134 31.8632 22.7125C31.8632 22.7117 31.8632 22.7108 31.8632 22.71C31.8632 22.7091 31.8632 22.7082 31.8632 22.7074C31.8632 22.7065 31.8632 22.7056 31.8632 22.7048C31.8632 22.7039 31.8632 22.7031 31.8632 22.7022C31.8632 22.7013 31.8632 22.7005 31.8632 22.6996C31.8632 22.6987 31.8632 22.6979 31.8632 22.697C31.8632 22.6962 31.8632 22.6953 31.8632 22.6944C31.8632 22.6936 31.8632 22.6927 31.8632 22.6918C31.8632 22.691 31.8632 22.6901 31.8632 22.6893C31.8632 22.6884 31.8632 22.6875 31.8632 22.6867C31.8632 22.6858 31.8632 22.6849 31.8632 22.6841C31.8632 22.6832 31.8632 22.6824 31.8632 22.6815C31.8632 22.6806 31.8632 22.6798 31.8632 22.6789C31.8632 22.678 31.8632 22.6772 31.8632 22.6763C31.8632 22.6755 31.8632 22.6746 31.8632 22.6737C31.8632 22.6729 31.8632 22.672 31.8632 22.6711C31.8632 22.6703 31.8632 22.6694 31.8632 22.6686C31.8632 22.6677 31.8632 22.6668 31.8632 22.666C31.8632 22.6651 31.8632 22.6642 31.8632 22.6634C31.8632 22.6625 31.8632 22.6617 31.8632 22.6608C31.8632 22.6599 31.8632 22.6591 31.8632 22.6582C31.8632 22.6573 31.8632 22.6565 31.8632 22.6556C31.8632 22.6548 31.8632 22.6539 31.8632 22.653C31.8632 22.6522 31.8632 22.6513 31.8632 22.6504C31.8632 22.6496 31.8632 22.6487 31.8632 22.6479C31.8632 22.647 31.8632 22.6461 31.8632 22.6453C31.8632 22.6444 31.8632 22.6435 31.8632 22.6427C31.8632 22.6418 31.8632 22.641 31.8632 22.6401C31.8632 22.6392 31.8632 22.6384 31.8632 22.6375H29.8632ZM29.8632 23.9625C29.8632 24.3916 29.8551 24.8207 29.8389 25.2498L31.8375 25.3252C31.8546 24.871 31.8632 24.4167 31.8632 23.9625H29.8632ZM29.8389 25.2491C29.8228 25.6694 29.7985 26.0853 29.7662 26.4968L31.7601 26.6532C31.7945 26.2147 31.8203 25.7723 31.8374 25.3259L29.8389 25.2491ZM29.765 26.5151C29.7416 26.9044 29.7028 27.2846 29.6487 27.6557L31.6277 27.9443C31.6903 27.5154 31.7347 27.0789 31.7614 26.6349L29.765 26.5151ZM29.6661 27.5654C29.5771 27.9341 29.4646 28.0686 29.4189 28.1084L30.7325 29.6166C31.2034 29.2064 31.4659 28.6326 31.6103 28.0346L29.6661 27.5654ZM29.4208 28.1068C29.4178 28.1094 29.3258 28.1875 28.9882 28.1875V30.1875C29.6005 30.1875 30.2336 30.0489 30.7306 29.6182L29.4208 28.1068ZM28.9882 28.1875C28.9271 28.1875 28.9015 28.1796 28.9004 28.1792C28.9002 28.1791 28.9049 28.1807 28.913 28.1851C28.9212 28.1896 28.9302 28.1957 28.939 28.2032L27.6374 29.7218C28.0376 30.0648 28.523 30.1875 28.9882 30.1875V28.1875ZM28.9571 28.2192C28.9706 28.2313 28.9749 28.2406 28.9728 28.2364C28.9697 28.2303 28.9575 28.2038 28.9471 28.1461L26.9793 28.5039C27.059 28.9419 27.2509 29.3743 27.6192 29.7058L28.9571 28.2192ZM28.9615 28.2663C28.9449 27.9847 28.9283 27.6904 28.9117 27.3835L26.9146 27.4915C26.9314 27.8013 26.9481 28.0987 26.9649 28.3837L28.9615 28.2663ZM28.9118 27.3849C28.8947 27.0605 28.8734 26.7281 28.8479 26.3877L26.8535 26.5373C26.878 26.8636 26.8983 27.1812 26.9146 27.4901L28.9118 27.3849ZM28.8495 26.4138C28.8328 26.0721 28.8162 25.7304 28.7995 25.3888L26.8019 25.4862C26.8185 25.8279 26.8352 26.1696 26.8519 26.5112L28.8495 26.4138ZM28.7995 25.3888C28.7828 25.0467 28.7661 24.7088 28.7494 24.3751L26.7519 24.4749C26.7686 24.8079 26.7852 25.145 26.8019 25.4862L28.7995 25.3888ZM28.75 24.3871C28.7246 23.7194 28.6908 23.0759 28.6483 22.4567L26.653 22.5933C26.6939 23.1908 26.7268 23.814 26.7514 24.4629L28.75 24.3871ZM28.6484 22.4576C28.6059 21.8278 28.5544 21.2598 28.4935 20.7552L26.5079 20.9948C26.5636 21.4568 26.6122 21.9888 26.653 22.5924L28.6484 22.4576ZM28.4956 20.7738C28.4437 20.2643 28.3738 19.8178 28.271 19.4752L26.3554 20.0498C26.4026 20.2072 26.4576 20.5023 26.5058 20.9762L28.4956 20.7738ZM28.2701 19.472C28.1123 18.9524 27.9074 18.4713 27.6224 18.0956L26.029 19.3044C26.1106 19.412 26.2307 19.6393 26.3563 20.053L28.2701 19.472ZM27.6356 18.1135C27.2383 17.5648 26.6456 17.3375 26.0382 17.3375V19.3375C26.0987 19.3375 26.104 19.3478 26.0794 19.3365C26.0674 19.331 26.0534 19.3226 26.04 19.3114C26.0267 19.3004 26.0189 19.2908 26.0157 19.2865L27.6356 18.1135ZM26.0382 17.3375C25.4309 17.3375 24.9179 17.6033 24.5313 18.0186L25.9951 19.3814C26.0338 19.3398 26.0532 19.3321 26.0494 19.3339C26.048 19.3346 26.0445 19.3359 26.0403 19.3369C26.0361 19.3378 26.0348 19.3375 26.0382 19.3375V17.3375ZM24.5304 18.0195C24.1498 18.4294 23.931 18.9665 23.8016 19.5239L25.7498 19.9761C25.8371 19.6001 25.9432 19.4373 25.996 19.3805L24.5304 18.0195ZM23.7967 19.546C23.7533 19.7543 23.7021 20.0151 23.6431 20.3266L25.6083 20.6984C25.666 20.3933 25.7147 20.1457 25.7547 19.954L23.7967 19.546ZM23.6441 20.3216C23.5848 20.6264 23.5216 20.9638 23.4543 21.3336L25.4221 21.6914C25.4881 21.3279 25.5499 20.9986 25.6073 20.7034L23.6441 20.3216ZM23.4512 21.3518C23.3933 21.7076 23.3312 22.0802 23.2649 22.4697L25.2365 22.8053C25.3035 22.4115 25.3664 22.0341 25.4252 21.6732L23.4512 21.3518ZM23.2621 22.4871C23.2039 22.8693 23.1457 23.2474 23.0876 23.6213L25.0638 23.9287C25.1223 23.5526 25.1808 23.1723 25.2393 22.7879L23.2621 22.4871ZM23.0881 23.6179C23.0297 23.9849 22.9755 24.3269 22.9254 24.644L24.9009 24.956C24.9509 24.6397 25.005 24.2985 25.0633 23.9321L23.0881 23.6179ZM22.9312 24.6112C22.8243 25.1669 22.6666 25.4668 22.5356 25.6165L24.0408 26.9335C24.4931 26.4165 24.7521 25.7331 24.8952 24.9888L22.9312 24.6112ZM22.5344 25.6179C22.4787 25.6818 22.3786 25.7625 22.0882 25.7625V27.7625C22.8311 27.7625 23.531 27.5182 24.042 26.9321L22.5344 25.6179ZM22.0882 25.7625C21.7332 25.7625 21.6588 25.6598 21.6148 25.5884L19.9115 26.6366C20.4009 27.4319 21.2098 27.7625 22.0882 27.7625V25.7625ZM21.6148 25.5884C21.4114 25.2577 21.2001 24.7658 20.9972 24.0792L19.0792 24.6458C19.3096 25.4259 19.5817 26.1006 19.9115 26.6366L21.6148 25.5884ZM21.0174 24.1599C20.9668 23.9151 20.9038 23.6169 20.8285 23.2655L18.8729 23.6845C18.9476 24.0331 19.0096 24.3265 19.0589 24.5651L21.0174 24.1599ZM20.8285 23.2655C20.7536 22.916 20.6745 22.5456 20.5913 22.1544L18.6351 22.5706C18.7185 22.9627 18.7978 23.334 18.8729 23.6845L20.8285 23.2655ZM20.5922 22.1585C20.5085 21.7572 20.4249 21.36 20.3413 20.9669L18.3851 21.3831C18.4681 21.7734 18.5512 22.1678 18.6342 22.5665L20.5922 22.1585ZM20.3413 20.9669C20.2567 20.5694 20.1759 20.2076 20.0988 19.882L18.1526 20.343C18.2255 20.6507 18.303 20.9973 18.3851 21.3831L20.3413 20.9669ZM20.1053 19.9116C20.0359 19.5735 19.9672 19.2816 19.8982 19.045L17.9782 19.605C18.0258 19.7684 18.0821 20.0015 18.1461 20.3134L20.1053 19.9116ZM19.9083 19.0825C19.781 18.5732 19.5746 18.0634 19.2102 17.6831L17.7662 19.0669C17.7851 19.0866 17.8787 19.2101 17.968 19.5675L19.9083 19.0825ZM19.2253 17.6993C18.8633 17.3044 18.3798 17.075 17.8257 17.075V19.075C17.8257 19.075 17.824 19.075 17.8209 19.0747C17.8177 19.0744 17.8134 19.0738 17.8081 19.0727C17.797 19.0703 17.7847 19.0665 17.7726 19.061C17.7461 19.049 17.7397 19.0384 17.751 19.0507L19.2253 17.6993ZM17.8257 17.075C17.1676 17.075 16.5467 17.3485 16.1705 17.9692L17.8809 19.0058C17.8801 19.0071 17.8735 19.0175 17.8589 19.0313C17.844 19.0455 17.8265 19.0579 17.809 19.0669C17.7725 19.0857 17.7669 19.075 17.8257 19.075V17.075ZM16.1591 17.9885C15.9089 18.4231 15.7568 19.0054 15.6518 19.6356L17.6246 19.9644C17.7196 19.3946 17.8258 19.1019 17.8923 18.9865L16.1591 17.9885ZM15.6518 19.6356C15.6119 19.8752 15.5799 20.165 15.5538 20.4963L17.5476 20.6537C17.5714 20.3516 17.5978 20.1248 17.6246 19.9644L15.6518 19.6356ZM15.5538 20.4963C15.5276 20.828 15.5061 21.199 15.4891 21.6084L17.4873 21.6916C17.5036 21.301 17.5238 20.9553 17.5476 20.6537L15.5538 20.4963ZM15.4891 21.6075C15.4723 22.0012 15.4556 22.4239 15.4389 22.8755L17.4375 22.9495C17.4541 22.5011 17.4707 22.0821 17.4873 21.6925L15.4891 21.6075ZM15.4384 22.894C15.4299 23.3504 15.4257 23.8149 15.4257 24.2875H17.4257C17.4257 23.8268 17.4298 23.3746 17.438 22.931L15.4384 22.894ZM15.4257 24.2875C15.4257 24.7651 15.4216 25.217 15.4134 25.6433L17.413 25.6817C17.4215 25.2413 17.4257 24.7765 17.4257 24.2875H15.4257ZM15.4132 25.6625C15.4132 26.0832 15.4051 26.4724 15.3892 26.8306L17.3872 26.9194C17.4046 26.5276 17.4132 26.1084 17.4132 25.6625H15.4132ZM15.3892 26.8306C15.373 27.1955 15.3529 27.5147 15.3293 27.7896L17.322 27.9604C17.3485 27.6519 17.3701 27.3045 17.3872 26.9194L15.3892 26.8306ZM15.3274 27.8163C15.312 28.0778 15.2902 28.2673 15.2668 28.3961L17.2346 28.7539C17.2778 28.516 17.306 28.2389 17.324 27.9337L15.3274 27.8163ZM15.2921 28.29C15.2424 28.4573 15.1811 28.5354 15.1375 28.5753L16.4889 30.0497C16.8453 29.7229 17.0756 29.3094 17.2092 28.86L15.2921 28.29ZM15.1061 28.6054C15.1125 28.599 15.1198 28.5933 15.1267 28.589C15.1333 28.5848 15.1362 28.5842 15.1327 28.5854C15.1249 28.5882 15.086 28.6 15.0007 28.6V30.6C15.5352 30.6 16.0908 30.4491 16.5203 30.0196L15.1061 28.6054Z" fill="black" mask="url(#path-4-outside-2_2_36)"/>
</svg>
