<svg width="256" height="256" viewBox="0 0 256 256" fill="none" xmlns="http://www.w3.org/2000/svg">
<mask id="path-1-inside-1_2_96" fill="white">
<path d="M0 0H256V256H0V0Z"/>
<path d="M35.9904 163.584C33.6757 163.584 31.6224 162.8 29.8304 161.232C28.0384 159.739 26.5077 157.835 25.2384 155.52C24.0437 153.131 22.9984 150.741 22.1024 148.352C21.281 145.664 20.4224 142.043 19.5264 137.488C18.705 132.933 17.8837 127.893 17.0624 122.368C16.3157 116.843 15.6064 111.317 14.9344 105.792C14.337 100.192 13.8517 95.0027 13.4784 90.224C13.1797 85.3707 13.0304 81.4133 13.0304 78.352C13.0304 70.6613 13.7397 63.7547 15.1584 57.632C16.6517 51.4347 18.7424 46.0213 21.4304 41.392C24.1184 36.688 27.329 32.6933 31.0624 29.408C36.3637 24.928 42.7104 21.792 50.1024 20C57.4944 18.1333 65.521 17.2 74.1824 17.2C79.409 17.2 84.673 17.5733 89.9744 18.32C95.2757 19.0667 100.092 20.1867 104.422 21.68C108.828 23.0987 112.337 24.7787 114.95 26.72C117.638 28.6613 118.982 30.8267 118.982 33.216C118.982 35.232 118.422 36.7627 117.302 37.808C116.182 38.8533 114.614 39.6 112.598 40.048C109.537 40.4213 105.318 40.384 99.9424 39.936C94.641 39.4133 88.7051 39.152 82.1344 39.152C75.1904 39.152 69.3664 39.936 64.6624 41.504C60.033 42.9973 56.337 45.2373 53.5744 48.224C51.5584 50.1653 49.953 52.5173 48.7584 55.28C47.6384 57.968 46.817 61.104 46.2944 64.688C45.8464 68.1973 45.6224 72.192 45.6224 76.672C45.6224 78.688 45.7344 80.5173 45.9584 82.16C46.257 83.728 46.705 85.072 47.3024 86.192C47.8997 87.312 48.6464 88.1707 49.5424 88.768C50.513 89.3653 51.7077 89.664 53.1264 89.664C55.5904 89.664 58.577 89.5893 62.0864 89.44C65.6704 89.216 69.329 88.992 73.0624 88.768C76.7957 88.4693 80.305 88.2827 83.5904 88.208C86.8757 88.1333 89.5637 88.1707 91.6544 88.32C94.641 88.6933 96.9184 89.3653 98.4864 90.336C100.129 91.232 100.95 92.6133 100.95 94.48C100.95 95.5253 100.726 96.5707 100.278 97.616C99.8304 98.6613 99.1584 99.5947 98.2624 100.416C96.9184 101.76 94.3797 102.731 90.6464 103.328C86.913 103.851 81.761 104.448 75.1904 105.12C68.6197 105.717 60.3317 106.8 50.3264 108.368C48.0864 108.667 46.481 109.563 45.5104 111.056C44.6144 112.475 44.1664 114.453 44.1664 116.992C44.1664 118.037 44.2784 119.867 44.5024 122.48C44.7264 125.019 44.9504 127.893 45.1744 131.104C45.473 134.315 45.7344 137.563 45.9584 140.848C46.1824 144.133 46.3317 147.083 46.4064 149.696C46.481 152.309 46.4437 154.288 46.2944 155.632C45.473 158.693 44.1664 160.784 42.3744 161.904C40.5824 163.024 38.4544 163.584 35.9904 163.584Z"/>
<path d="M120.005 236.8C116.205 236.8 113.505 235.633 111.905 233.3C110.305 231.033 108.972 227.733 107.905 223.4C107.372 220.667 106.905 217.667 106.505 214.4C106.105 211.133 105.805 207.733 105.605 204.2C105.405 200.6 105.239 196.933 105.105 193.2C105.039 189.4 105.005 185.6 105.005 181.8C105.139 177 105.339 172.2 105.605 167.4C105.872 162.6 106.239 158 106.705 153.6C107.172 149.133 107.705 145.167 108.305 141.7C108.972 138.167 109.672 135.367 110.405 133.3C112.139 128.367 114.439 124.433 117.305 121.5C120.172 118.567 123.472 116.467 127.205 115.2C130.939 113.867 134.839 113.2 138.905 113.2C143.572 113.2 147.605 114.233 151.005 116.3C154.472 118.367 157.139 121.367 159.005 125.3C160.072 127.5 161.139 130.233 162.205 133.5C163.272 136.767 164.272 140.233 165.205 143.9C166.205 147.567 167.105 151.233 167.905 154.9C168.772 158.5 169.505 161.833 170.105 164.9C170.839 168.7 171.672 172.067 172.605 175C173.605 177.867 175.072 179.3 177.005 179.3C178.939 179.3 180.372 178.1 181.305 175.7C182.305 173.3 183.072 170.633 183.605 167.7C184.139 164.3 184.739 160.667 185.405 156.8C186.072 152.933 186.805 149.1 187.605 145.3C188.472 141.433 189.372 137.767 190.305 134.3C191.305 130.833 192.305 127.767 193.305 125.1C195.105 121.3 197.639 118.367 200.905 116.3C204.239 114.233 208.505 113.2 213.705 113.2C217.572 113.2 221.105 113.9 224.305 115.3C227.505 116.633 230.372 118.6 232.905 121.2C235.439 123.8 237.572 127 239.305 130.8C240.839 133.933 242.139 138.1 243.205 143.3C244.339 148.433 245.205 154.267 245.805 160.8C246.405 167.267 246.772 174.033 246.905 181.1C246.905 184.633 246.905 188.167 246.905 191.7C246.905 195.233 246.839 198.767 246.705 202.3C246.572 205.767 246.372 209.2 246.105 212.6C245.905 215.933 245.572 219.2 245.105 222.4C244.172 226.267 242.672 229.1 240.605 230.9C238.605 232.633 235.705 233.5 231.905 233.5C229.572 233.5 227.705 232.9 226.305 231.7C224.972 230.5 224.105 228.8 223.705 226.6C223.572 224.333 223.439 221.967 223.305 219.5C223.172 216.967 223.005 214.367 222.805 211.7C222.672 208.967 222.539 206.233 222.405 203.5C222.272 200.767 222.139 198.067 222.005 195.4C221.805 190.133 221.539 185.067 221.205 180.2C220.872 175.267 220.472 170.867 220.005 167C219.605 163.067 219.105 160.1 218.505 158.1C217.372 154.367 216.072 151.533 214.605 149.6C213.205 147.667 211.105 146.7 208.305 146.7C205.972 146.7 203.905 147.667 202.105 149.6C200.372 151.467 199.072 154.267 198.205 158C197.872 159.6 197.472 161.633 197.005 164.1C196.539 166.5 196.039 169.167 195.505 172.1C195.039 174.967 194.539 177.967 194.005 181.1C193.539 184.167 193.072 187.2 192.605 190.2C192.139 193.133 191.705 195.867 191.305 198.4C190.305 203.6 188.639 207.533 186.305 210.2C184.039 212.8 180.839 214.1 176.705 214.1C171.772 214.1 168.239 212.367 166.105 208.9C163.972 205.433 162.039 200.767 160.305 194.9C159.905 192.967 159.405 190.6 158.805 187.8C158.205 185 157.572 182.033 156.905 178.9C156.239 175.7 155.572 172.533 154.905 169.4C154.239 166.267 153.605 163.433 153.005 160.9C152.472 158.3 151.972 156.2 151.505 154.6C150.639 151.133 149.439 148.6 147.905 147C146.439 145.4 144.672 144.6 142.605 144.6C139.672 144.6 137.539 145.7 136.205 147.9C134.939 150.1 133.905 153.6 133.105 158.4C132.839 160 132.605 162.067 132.405 164.6C132.205 167.133 132.039 170 131.905 173.2C131.772 176.333 131.639 179.7 131.505 183.3C131.439 186.9 131.405 190.567 131.405 194.3C131.405 198.167 131.372 201.833 131.305 205.3C131.305 208.767 131.239 212 131.105 215C130.972 218 130.805 220.667 130.605 223C130.472 225.267 130.272 227.133 130.005 228.6C129.272 231.067 128.105 233.033 126.505 234.5C124.972 236.033 122.805 236.8 120.005 236.8Z"/>
</mask>
<path d="M0 0H256V256H0V0Z" fill="#E62321"/>
<path d="M35.9904 163.584C33.6757 163.584 31.6224 162.8 29.8304 161.232C28.0384 159.739 26.5077 157.835 25.2384 155.52C24.0437 153.131 22.9984 150.741 22.1024 148.352C21.281 145.664 20.4224 142.043 19.5264 137.488C18.705 132.933 17.8837 127.893 17.0624 122.368C16.3157 116.843 15.6064 111.317 14.9344 105.792C14.337 100.192 13.8517 95.0027 13.4784 90.224C13.1797 85.3707 13.0304 81.4133 13.0304 78.352C13.0304 70.6613 13.7397 63.7547 15.1584 57.632C16.6517 51.4347 18.7424 46.0213 21.4304 41.392C24.1184 36.688 27.329 32.6933 31.0624 29.408C36.3637 24.928 42.7104 21.792 50.1024 20C57.4944 18.1333 65.521 17.2 74.1824 17.2C79.409 17.2 84.673 17.5733 89.9744 18.32C95.2757 19.0667 100.092 20.1867 104.422 21.68C108.828 23.0987 112.337 24.7787 114.95 26.72C117.638 28.6613 118.982 30.8267 118.982 33.216C118.982 35.232 118.422 36.7627 117.302 37.808C116.182 38.8533 114.614 39.6 112.598 40.048C109.537 40.4213 105.318 40.384 99.9424 39.936C94.641 39.4133 88.7051 39.152 82.1344 39.152C75.1904 39.152 69.3664 39.936 64.6624 41.504C60.033 42.9973 56.337 45.2373 53.5744 48.224C51.5584 50.1653 49.953 52.5173 48.7584 55.28C47.6384 57.968 46.817 61.104 46.2944 64.688C45.8464 68.1973 45.6224 72.192 45.6224 76.672C45.6224 78.688 45.7344 80.5173 45.9584 82.16C46.257 83.728 46.705 85.072 47.3024 86.192C47.8997 87.312 48.6464 88.1707 49.5424 88.768C50.513 89.3653 51.7077 89.664 53.1264 89.664C55.5904 89.664 58.577 89.5893 62.0864 89.44C65.6704 89.216 69.329 88.992 73.0624 88.768C76.7957 88.4693 80.305 88.2827 83.5904 88.208C86.8757 88.1333 89.5637 88.1707 91.6544 88.32C94.641 88.6933 96.9184 89.3653 98.4864 90.336C100.129 91.232 100.95 92.6133 100.95 94.48C100.95 95.5253 100.726 96.5707 100.278 97.616C99.8304 98.6613 99.1584 99.5947 98.2624 100.416C96.9184 101.76 94.3797 102.731 90.6464 103.328C86.913 103.851 81.761 104.448 75.1904 105.12C68.6197 105.717 60.3317 106.8 50.3264 108.368C48.0864 108.667 46.481 109.563 45.5104 111.056C44.6144 112.475 44.1664 114.453 44.1664 116.992C44.1664 118.037 44.2784 119.867 44.5024 122.48C44.7264 125.019 44.9504 127.893 45.1744 131.104C45.473 134.315 45.7344 137.563 45.9584 140.848C46.1824 144.133 46.3317 147.083 46.4064 149.696C46.481 152.309 46.4437 154.288 46.2944 155.632C45.473 158.693 44.1664 160.784 42.3744 161.904C40.5824 163.024 38.4544 163.584 35.9904 163.584Z" fill="white"/>
<path d="M120.005 236.8C116.205 236.8 113.505 235.633 111.905 233.3C110.305 231.033 108.972 227.733 107.905 223.4C107.372 220.667 106.905 217.667 106.505 214.4C106.105 211.133 105.805 207.733 105.605 204.2C105.405 200.6 105.239 196.933 105.105 193.2C105.039 189.4 105.005 185.6 105.005 181.8C105.139 177 105.339 172.2 105.605 167.4C105.872 162.6 106.239 158 106.705 153.6C107.172 149.133 107.705 145.167 108.305 141.7C108.972 138.167 109.672 135.367 110.405 133.3C112.139 128.367 114.439 124.433 117.305 121.5C120.172 118.567 123.472 116.467 127.205 115.2C130.939 113.867 134.839 113.2 138.905 113.2C143.572 113.2 147.605 114.233 151.005 116.3C154.472 118.367 157.139 121.367 159.005 125.3C160.072 127.5 161.139 130.233 162.205 133.5C163.272 136.767 164.272 140.233 165.205 143.9C166.205 147.567 167.105 151.233 167.905 154.9C168.772 158.5 169.505 161.833 170.105 164.9C170.839 168.7 171.672 172.067 172.605 175C173.605 177.867 175.072 179.3 177.005 179.3C178.939 179.3 180.372 178.1 181.305 175.7C182.305 173.3 183.072 170.633 183.605 167.7C184.139 164.3 184.739 160.667 185.405 156.8C186.072 152.933 186.805 149.1 187.605 145.3C188.472 141.433 189.372 137.767 190.305 134.3C191.305 130.833 192.305 127.767 193.305 125.1C195.105 121.3 197.639 118.367 200.905 116.3C204.239 114.233 208.505 113.2 213.705 113.2C217.572 113.2 221.105 113.9 224.305 115.3C227.505 116.633 230.372 118.6 232.905 121.2C235.439 123.8 237.572 127 239.305 130.8C240.839 133.933 242.139 138.1 243.205 143.3C244.339 148.433 245.205 154.267 245.805 160.8C246.405 167.267 246.772 174.033 246.905 181.1C246.905 184.633 246.905 188.167 246.905 191.7C246.905 195.233 246.839 198.767 246.705 202.3C246.572 205.767 246.372 209.2 246.105 212.6C245.905 215.933 245.572 219.2 245.105 222.4C244.172 226.267 242.672 229.1 240.605 230.9C238.605 232.633 235.705 233.5 231.905 233.5C229.572 233.5 227.705 232.9 226.305 231.7C224.972 230.5 224.105 228.8 223.705 226.6C223.572 224.333 223.439 221.967 223.305 219.5C223.172 216.967 223.005 214.367 222.805 211.7C222.672 208.967 222.539 206.233 222.405 203.5C222.272 200.767 222.139 198.067 222.005 195.4C221.805 190.133 221.539 185.067 221.205 180.2C220.872 175.267 220.472 170.867 220.005 167C219.605 163.067 219.105 160.1 218.505 158.1C217.372 154.367 216.072 151.533 214.605 149.6C213.205 147.667 211.105 146.7 208.305 146.7C205.972 146.7 203.905 147.667 202.105 149.6C200.372 151.467 199.072 154.267 198.205 158C197.872 159.6 197.472 161.633 197.005 164.1C196.539 166.5 196.039 169.167 195.505 172.1C195.039 174.967 194.539 177.967 194.005 181.1C193.539 184.167 193.072 187.2 192.605 190.2C192.139 193.133 191.705 195.867 191.305 198.4C190.305 203.6 188.639 207.533 186.305 210.2C184.039 212.8 180.839 214.1 176.705 214.1C171.772 214.1 168.239 212.367 166.105 208.9C163.972 205.433 162.039 200.767 160.305 194.9C159.905 192.967 159.405 190.6 158.805 187.8C158.205 185 157.572 182.033 156.905 178.9C156.239 175.7 155.572 172.533 154.905 169.4C154.239 166.267 153.605 163.433 153.005 160.9C152.472 158.3 151.972 156.2 151.505 154.6C150.639 151.133 149.439 148.6 147.905 147C146.439 145.4 144.672 144.6 142.605 144.6C139.672 144.6 137.539 145.7 136.205 147.9C134.939 150.1 133.905 153.6 133.105 158.4C132.839 160 132.605 162.067 132.405 164.6C132.205 167.133 132.039 170 131.905 173.2C131.772 176.333 131.639 179.7 131.505 183.3C131.439 186.9 131.405 190.567 131.405 194.3C131.405 198.167 131.372 201.833 131.305 205.3C131.305 208.767 131.239 212 131.105 215C130.972 218 130.805 220.667 130.605 223C130.472 225.267 130.272 227.133 130.005 228.6C129.272 231.067 128.105 233.033 126.505 234.5C124.972 236.033 122.805 236.8 120.005 236.8Z" fill="white"/>
<path d="M0 0H256V256H0V0Z" stroke="black" stroke-width="2" mask="url(#path-1-inside-1_2_96)"/>
<path d="M35.9904 163.584C33.6757 163.584 31.6224 162.8 29.8304 161.232C28.0384 159.739 26.5077 157.835 25.2384 155.52C24.0437 153.131 22.9984 150.741 22.1024 148.352C21.281 145.664 20.4224 142.043 19.5264 137.488C18.705 132.933 17.8837 127.893 17.0624 122.368C16.3157 116.843 15.6064 111.317 14.9344 105.792C14.337 100.192 13.8517 95.0027 13.4784 90.224C13.1797 85.3707 13.0304 81.4133 13.0304 78.352C13.0304 70.6613 13.7397 63.7547 15.1584 57.632C16.6517 51.4347 18.7424 46.0213 21.4304 41.392C24.1184 36.688 27.329 32.6933 31.0624 29.408C36.3637 24.928 42.7104 21.792 50.1024 20C57.4944 18.1333 65.521 17.2 74.1824 17.2C79.409 17.2 84.673 17.5733 89.9744 18.32C95.2757 19.0667 100.092 20.1867 104.422 21.68C108.828 23.0987 112.337 24.7787 114.95 26.72C117.638 28.6613 118.982 30.8267 118.982 33.216C118.982 35.232 118.422 36.7627 117.302 37.808C116.182 38.8533 114.614 39.6 112.598 40.048C109.537 40.4213 105.318 40.384 99.9424 39.936C94.641 39.4133 88.7051 39.152 82.1344 39.152C75.1904 39.152 69.3664 39.936 64.6624 41.504C60.033 42.9973 56.337 45.2373 53.5744 48.224C51.5584 50.1653 49.953 52.5173 48.7584 55.28C47.6384 57.968 46.817 61.104 46.2944 64.688C45.8464 68.1973 45.6224 72.192 45.6224 76.672C45.6224 78.688 45.7344 80.5173 45.9584 82.16C46.257 83.728 46.705 85.072 47.3024 86.192C47.8997 87.312 48.6464 88.1707 49.5424 88.768C50.513 89.3653 51.7077 89.664 53.1264 89.664C55.5904 89.664 58.577 89.5893 62.0864 89.44C65.6704 89.216 69.329 88.992 73.0624 88.768C76.7957 88.4693 80.305 88.2827 83.5904 88.208C86.8757 88.1333 89.5637 88.1707 91.6544 88.32C94.641 88.6933 96.9184 89.3653 98.4864 90.336C100.129 91.232 100.95 92.6133 100.95 94.48C100.95 95.5253 100.726 96.5707 100.278 97.616C99.8304 98.6613 99.1584 99.5947 98.2624 100.416C96.9184 101.76 94.3797 102.731 90.6464 103.328C86.913 103.851 81.761 104.448 75.1904 105.12C68.6197 105.717 60.3317 106.8 50.3264 108.368C48.0864 108.667 46.481 109.563 45.5104 111.056C44.6144 112.475 44.1664 114.453 44.1664 116.992C44.1664 118.037 44.2784 119.867 44.5024 122.48C44.7264 125.019 44.9504 127.893 45.1744 131.104C45.473 134.315 45.7344 137.563 45.9584 140.848C46.1824 144.133 46.3317 147.083 46.4064 149.696C46.481 152.309 46.4437 154.288 46.2944 155.632C45.473 158.693 44.1664 160.784 42.3744 161.904C40.5824 163.024 38.4544 163.584 35.9904 163.584Z" stroke="black" stroke-width="2" mask="url(#path-1-inside-1_2_96)"/>
<path d="M120.005 236.8C116.205 236.8 113.505 235.633 111.905 233.3C110.305 231.033 108.972 227.733 107.905 223.4C107.372 220.667 106.905 217.667 106.505 214.4C106.105 211.133 105.805 207.733 105.605 204.2C105.405 200.6 105.239 196.933 105.105 193.2C105.039 189.4 105.005 185.6 105.005 181.8C105.139 177 105.339 172.2 105.605 167.4C105.872 162.6 106.239 158 106.705 153.6C107.172 149.133 107.705 145.167 108.305 141.7C108.972 138.167 109.672 135.367 110.405 133.3C112.139 128.367 114.439 124.433 117.305 121.5C120.172 118.567 123.472 116.467 127.205 115.2C130.939 113.867 134.839 113.2 138.905 113.2C143.572 113.2 147.605 114.233 151.005 116.3C154.472 118.367 157.139 121.367 159.005 125.3C160.072 127.5 161.139 130.233 162.205 133.5C163.272 136.767 164.272 140.233 165.205 143.9C166.205 147.567 167.105 151.233 167.905 154.9C168.772 158.5 169.505 161.833 170.105 164.9C170.839 168.7 171.672 172.067 172.605 175C173.605 177.867 175.072 179.3 177.005 179.3C178.939 179.3 180.372 178.1 181.305 175.7C182.305 173.3 183.072 170.633 183.605 167.7C184.139 164.3 184.739 160.667 185.405 156.8C186.072 152.933 186.805 149.1 187.605 145.3C188.472 141.433 189.372 137.767 190.305 134.3C191.305 130.833 192.305 127.767 193.305 125.1C195.105 121.3 197.639 118.367 200.905 116.3C204.239 114.233 208.505 113.2 213.705 113.2C217.572 113.2 221.105 113.9 224.305 115.3C227.505 116.633 230.372 118.6 232.905 121.2C235.439 123.8 237.572 127 239.305 130.8C240.839 133.933 242.139 138.1 243.205 143.3C244.339 148.433 245.205 154.267 245.805 160.8C246.405 167.267 246.772 174.033 246.905 181.1C246.905 184.633 246.905 188.167 246.905 191.7C246.905 195.233 246.839 198.767 246.705 202.3C246.572 205.767 246.372 209.2 246.105 212.6C245.905 215.933 245.572 219.2 245.105 222.4C244.172 226.267 242.672 229.1 240.605 230.9C238.605 232.633 235.705 233.5 231.905 233.5C229.572 233.5 227.705 232.9 226.305 231.7C224.972 230.5 224.105 228.8 223.705 226.6C223.572 224.333 223.439 221.967 223.305 219.5C223.172 216.967 223.005 214.367 222.805 211.7C222.672 208.967 222.539 206.233 222.405 203.5C222.272 200.767 222.139 198.067 222.005 195.4C221.805 190.133 221.539 185.067 221.205 180.2C220.872 175.267 220.472 170.867 220.005 167C219.605 163.067 219.105 160.1 218.505 158.1C217.372 154.367 216.072 151.533 214.605 149.6C213.205 147.667 211.105 146.7 208.305 146.7C205.972 146.7 203.905 147.667 202.105 149.6C200.372 151.467 199.072 154.267 198.205 158C197.872 159.6 197.472 161.633 197.005 164.1C196.539 166.5 196.039 169.167 195.505 172.1C195.039 174.967 194.539 177.967 194.005 181.1C193.539 184.167 193.072 187.2 192.605 190.2C192.139 193.133 191.705 195.867 191.305 198.4C190.305 203.6 188.639 207.533 186.305 210.2C184.039 212.8 180.839 214.1 176.705 214.1C171.772 214.1 168.239 212.367 166.105 208.9C163.972 205.433 162.039 200.767 160.305 194.9C159.905 192.967 159.405 190.6 158.805 187.8C158.205 185 157.572 182.033 156.905 178.9C156.239 175.7 155.572 172.533 154.905 169.4C154.239 166.267 153.605 163.433 153.005 160.9C152.472 158.3 151.972 156.2 151.505 154.6C150.639 151.133 149.439 148.6 147.905 147C146.439 145.4 144.672 144.6 142.605 144.6C139.672 144.6 137.539 145.7 136.205 147.9C134.939 150.1 133.905 153.6 133.105 158.4C132.839 160 132.605 162.067 132.405 164.6C132.205 167.133 132.039 170 131.905 173.2C131.772 176.333 131.639 179.7 131.505 183.3C131.439 186.9 131.405 190.567 131.405 194.3C131.405 198.167 131.372 201.833 131.305 205.3C131.305 208.767 131.239 212 131.105 215C130.972 218 130.805 220.667 130.605 223C130.472 225.267 130.272 227.133 130.005 228.6C129.272 231.067 128.105 233.033 126.505 234.5C124.972 236.033 122.805 236.8 120.005 236.8Z" stroke="black" stroke-width="2" mask="url(#path-1-inside-1_2_96)"/>
</svg>
